<?xml version="1.0" encoding="utf-8"?>
<!-- Generator: Adobe Illustrator 21.0.0, SVG Export Plug-In . SVG Version: 6.00 Build 0)  -->
<svg version="1.1" id="Layer_1" xmlns="http://www.w3.org/2000/svg" xmlns:xlink="http://www.w3.org/1999/xlink" x="0px" y="0px"
	 viewBox="0 0 51.8 29.3" style="enable-background:new 0 0 51.8 29.3;" xml:space="preserve">

<title>Discount</title>
<g>
	<path style="fill: currentColor;" d="M48.8,0H16.5c-0.8,0-1.6,0.3-2.2,0.8L0.8,12.9c-0.1,0.1-0.3,0.2-0.4,0.4c-0.4,0.5-0.5,1.1-0.5,1.6
		s0.4,1.1,0.8,1.5l13.5,12.2c0.6,0.5,1.4,0.8,2.1,0.8c0,0,0,0,0.1,0h32.4c1.7,0,3-1.1,3-2.5V2.6C51.8,1.1,50.5,0,48.8,0z M49.8,26.8
		c0,0.2-0.4,0.5-1,0.5H16.4c-0.3,0-0.6-0.1-0.9-0.3L2.1,14.9C2,14.8,2,14.8,2,14.7s0-0.1,0.1-0.2c0,0,0.1-0.1,0.1-0.1L15.6,2.3
		C15.8,2.1,16.1,2,16.5,2h32.4c0.6,0,1,0.4,1,0.6V26.8z"/>
	<path style="fill: currentColor;" d="M37.9,13c-2.2,0-3.6,1.6-3.6,4c0,2.4,1.6,3.9,3.5,3.9s3.6-1.4,3.6-4.1C41.4,14.6,40.1,13,37.9,13z M37.9,19.2
		c-0.9,0-1.3-1-1.3-2.3h0c0-1.3,0.4-2.3,1.3-2.3s1.3,0.9,1.3,2.3C39.2,18.4,38.8,19.2,37.9,19.2z"/>
	<polygon style="fill: currentColor;" points="36.1,7.6 28.7,20.9 30.3,20.9 37.7,7.6 	"/>
	<path style="fill: currentColor;" d="M32.1,11.4c0-2.2-1.3-3.8-3.5-3.8c-2.2,0-3.6,1.6-3.6,4c0,2.4,1.6,3.9,3.5,3.9S32.1,14.1,32.1,11.4z
		 M28.6,13.9c-0.9,0-1.3-1-1.3-2.3c0-1.3,0.4-2.3,1.3-2.3s1.3,0.9,1.3,2.3S29.5,13.9,28.6,13.9z"/>
	<path style="fill: currentColor;" d="M9,12.8c-0.4,0.4-0.7,1-0.7,1.7c0,0.6,0.2,1.2,0.7,1.7c0.5,0.5,1.1,0.7,1.7,0.7s1.2-0.2,1.7-0.7
		c0.4-0.4,0.7-1,0.7-1.7c0-0.6-0.2-1.2-0.7-1.7C11.4,11.9,9.9,11.9,9,12.8z M10.9,14.7c-0.1,0.1-0.3,0.1-0.5,0
		c-0.1-0.1-0.1-0.2-0.1-0.2c0-0.1,0-0.2,0.1-0.2c0.1-0.1,0.2-0.1,0.2-0.1c0.1,0,0.2,0,0.2,0.1c0.1,0.1,0.1,0.2,0.1,0.2
		C11,14.5,11,14.6,10.9,14.7z"/>
</g>
</svg>
