<?xml version="1.0" encoding="utf-8"?>
<!-- Generator: Adobe Illustrator 21.0.0, SVG Export Plug-In . SVG Version: 6.00 Build 0)  -->
<svg version="1.1" id="Layer_1" xmlns="http://www.w3.org/2000/svg" xmlns:xlink="http://www.w3.org/1999/xlink" x="0px" y="0px"
	 viewBox="0 0 52.2 48" style="enable-background:new 0 0 52.2 48;" xml:space="preserve">
<title>Journal</title>
<g>
	<path style="fill: currentColor;" d="M49,0H3.2C1.4,0,0,1.4,0,3.2V47c0,0.6,0.4,1,1,1h48c1.8,0,3.2-1.4,3.2-3.2V3.2C52.2,1.4,50.8,0,49,0z
		 M50.2,44.8c0,0.7-0.5,1.2-1.2,1.2H2V3.2C2,2.5,2.5,2,3.2,2H49c0.7,0,1.2,0.5,1.2,1.2V44.8z"/>
	<path style="fill: currentColor;" d="M44.6,6.6H7.4c-0.6,0-1,0.4-1,1v13.1c0,0.6,0.4,1,1,1h37.2c0.6,0,1-0.4,1-1V7.6C45.6,7,45.2,6.6,44.6,6.6z
		 M43.6,19.7H8.4V8.6h35.2V19.7z"/>
	<path style="fill: currentColor;" d="M27.1,25.2H7.4c-0.6,0-1,0.4-1,1v13.1c0,0.6,0.4,1,1,1h19.7c0.6,0,1-0.4,1-1V26.2
		C28.1,25.6,27.6,25.2,27.1,25.2z M26.1,38.3H8.4V27.2h17.7V38.3z"/>
	<path style="fill: currentColor;" d="M44.6,25.2H31.5c-0.6,0-1,0.4-1,1s0.4,1,1,1h13.1c0.6,0,1-0.4,1-1S45.2,25.2,44.6,25.2z"/>
	<path style="fill: currentColor;" d="M44.6,29.6H31.5c-0.6,0-1,0.4-1,1s0.4,1,1,1h13.1c0.6,0,1-0.4,1-1S45.2,29.6,44.6,29.6z"/>
	<path style="fill: currentColor;" d="M44.6,34H31.5c-0.6,0-1,0.4-1,1s0.4,1,1,1h13.1c0.6,0,1-0.4,1-1S45.2,34,44.6,34z"/>
	<path style="fill: currentColor;" d="M44.6,38.3H31.5c-0.6,0-1,0.4-1,1s0.4,1,1,1h13.1c0.6,0,1-0.4,1-1S45.2,38.3,44.6,38.3z"/>
</g>
</svg>
