<?xml version="1.0" encoding="utf-8"?>
<!-- Generator: Adobe Illustrator 21.0.0, SVG Export Plug-In . SVG Version: 6.00 Build 0)  -->
<svg version="1.1" id="Layer_1" xmlns="http://www.w3.org/2000/svg" xmlns:xlink="http://www.w3.org/1999/xlink" x="0px" y="0px"
	 viewBox="0 0 51 51" style="enable-background:new 0 0 51 51;" xml:space="preserve">
<style type="text/css">
	.st0{fill:#C9C9C9;}
</style>
<title>Login</title>
<g>
	<path class="st0" d="M25.5,26c-7.2,0-13-5.8-13-13s5.8-13,13-13c7.2,0,13,5.8,13,13S32.7,26,25.5,26z M25.5,2c-6.1,0-11,4.9-11,11
		s4.9,11,11,11s11-4.9,11-11S31.6,2,25.5,2z"/>
</g>
<g>
	<path class="st0" d="M50,51H1c-0.3,0-0.6-0.1-0.8-0.4S0,50.1,0,49.8c2.1-10.3,10.1-18.2,20.3-20.3c14-2.8,27.8,6.3,30.7,20.3
		c0.1,0.3,0,0.6-0.2,0.8C50.6,50.9,50.3,51,50,51z M2.3,49h46.5c-3.2-12.3-15.5-20.1-28-17.5C11.7,33.3,4.5,40.1,2.3,49z"/>
</g>
</svg>
