<?xml version="1.0" encoding="utf-8"?>
<!-- Generator: Adobe Illustrator 21.0.0, SVG Export Plug-In . SVG Version: 6.00 Build 0)  -->
<svg version="1.1" id="Layer_1" xmlns="http://www.w3.org/2000/svg" xmlns:xlink="http://www.w3.org/1999/xlink" x="0px" y="0px"
	 viewBox="0 0 52 33.2" style="enable-background:new 0 0 52 33.2;" xml:space="preserve">
<style type="text/css">
	.st0{fill:#C9C9C9;}
</style>
<title>Review</title>
<g>
	<path class="st0" d="M51.9,16.1C47.1,6.3,36.9,0,26,0c0,0,0,0,0,0C15.1,0,4.9,6.3,0.1,16.1C0,16.4,0,16.8,0.1,17
		c5,10.2,15.3,16.1,25.9,16.1c4.3,0,8.6-0.9,12.6-2.9c5.7-2.8,10.4-7.5,13.2-13.2C52,16.8,52,16.4,51.9,16.1z M37.8,28.4
		c-13.1,6.4-29,1.1-35.7-11.9C6.7,7.7,16,2,26,2c0,0,0,0,0,0c0,0,0,0,0,0c10,0,19.3,5.7,23.9,14.6C47.3,21.7,43,25.9,37.8,28.4z"/>
	<path class="st0" d="M26,4.5c-6.7,0-12.1,5.4-12.1,12.1S19.3,28.7,26,28.7s12.1-5.4,12.1-12.1S32.7,4.5,26,4.5z M26,26.7
		c-5.6,0-10.1-4.5-10.1-10.1C15.9,11,20.4,6.5,26,6.5c5.6,0,10.1,4.5,10.1,10.1C36.1,22.2,31.6,26.7,26,26.7z"/>
</g>
</svg>
