<?xml version="1.0" encoding="utf-8"?>
<!-- Generator: Adobe Illustrator 21.0.0, SVG Export Plug-In . SVG Version: 6.00 Build 0)  -->
<svg version="1.1" id="Layer_1" xmlns="http://www.w3.org/2000/svg" xmlns:xlink="http://www.w3.org/1999/xlink" x="0px" y="0px"
	 viewBox="0 0 48.9 51.9" style="enable-background:new 0 0 48.9 51.9;" xml:space="preserve">
<style type="text/css">
	.st0{fill:#C9C9C9;}
</style>
<title>Search</title>
<g>
	<path class="st0" d="M21.1,42.2C9.5,42.2,0,32.8,0,21.1C0,9.5,9.5,0,21.1,0s21.1,9.5,21.1,21.1C42.2,32.8,32.8,42.2,21.1,42.2z
		 M21.1,2C10.6,2,2,10.6,2,21.1c0,10.5,8.6,19.1,19.1,19.1c10.5,0,19.1-8.6,19.1-19.1C40.2,10.6,31.6,2,21.1,2z"/>
</g>
<g>
	<path class="st0" d="M47.9,51.9c-0.3,0-0.5-0.1-0.7-0.3L33.1,37.5c-0.4-0.4-0.4-1,0-1.4s1-0.4,1.4,0l14.1,14.2c0.4,0.4,0.4,1,0,1.4
		C48.4,51.8,48.2,51.9,47.9,51.9z"/>
</g>
</svg>
