<svg xmlns="http://www.w3.org/2000/svg" style="position:absolute; width: 0; height: 0;"><symbol viewBox="0 0 52 47" id="icon-bonus"><path d="M49 8h-6.1c-.5-4.5-4.3-8-8.9-8-3.5 0-6.5 2-8 4.9C24.5 2 21.5 0 18 0c-4.6 0-8.4 3.5-8.9 8H3c-1.7 0-3 1.3-3 3v7c0 1.7 1.3 3 3 3v23.1C3 45.7 4.3 47 5.9 47H46c1.6 0 2.9-1.3 2.9-2.9V21c1.7 0 3-1.3 3-3v-7c.1-1.7-1.2-3-2.9-3zM34 2c3.5 0 6.4 2.6 6.9 6H27.1c.5-3.4 3.4-6 6.9-6zM18 2c3.5 0 6.4 2.6 6.9 6H11.1c.5-3.4 3.4-6 6.9-6zM2 18v-7c0-.6.4-1 1-1h22v9H3c-.6 0-1-.4-1-1zm3 26.1V21h20v24H5.9c-.5 0-.9-.4-.9-.9zm42 0c0 .5-.4.9-.9.9H27V21h20v23.1zM50 18c0 .6-.4 1-1 1H27v-9h22c.6 0 1 .4 1 1v7z" fill="currentColor"></path></symbol><symbol viewBox="0 0 24 24" id="icon-calendar"><path d="M9 11H7v2h2v-2zm4 0h-2v2h2v-2zm4 0h-2v2h2v-2zm2-7h-1V2h-2v2H8V2H6v2H5c-1.11 0-1.99.9-1.99 2L3 20a2 2 0 0 0 2 2h14c1.1 0 2-.9 2-2V6c0-1.1-.9-2-2-2zm0 16H5V9h14v11z"></path><path d="M0 0h24v24H0z" fill="none"></path></symbol><symbol viewBox="0 0 51.8 29.3" id="icon-discount"><g fill="currentColor"><path d="M48.8 0H16.5c-.8 0-1.6.3-2.2.8L.8 12.9c-.1.1-.3.2-.4.4-.4.5-.5 1.1-.5 1.6s.4 1.1.8 1.5l13.5 12.2c.6.5 1.4.8 2.1.8h32.5c1.7 0 3-1.1 3-2.5V2.6c0-1.5-1.3-2.6-3-2.6zm1 26.8c0 .2-.4.5-1 .5H16.4c-.3 0-.6-.1-.9-.3L2.1 14.9c-.1-.1-.1-.1-.1-.2s0-.1.1-.2l.1-.1L15.6 2.3c.2-.2.5-.3.9-.3h32.4c.6 0 1 .4 1 .6v24.2z"></path><path d="M37.9 13c-2.2 0-3.6 1.6-3.6 4s1.6 3.9 3.5 3.9 3.6-1.4 3.6-4.1c0-2.2-1.3-3.8-3.5-3.8zm0 6.2c-.9 0-1.3-1-1.3-2.3 0-1.3.4-2.3 1.3-2.3s1.3.9 1.3 2.3c0 1.5-.4 2.3-1.3 2.3zM36.1 7.6l-7.4 13.3h1.6l7.4-13.3zM32.1 11.4c0-2.2-1.3-3.8-3.5-3.8s-3.6 1.6-3.6 4 1.6 3.9 3.5 3.9 3.6-1.4 3.6-4.1zm-3.5 2.5c-.9 0-1.3-1-1.3-2.3 0-1.3.4-2.3 1.3-2.3s1.3.9 1.3 2.3-.4 2.3-1.3 2.3zM9 12.8c-.4.4-.7 1-.7 1.7 0 .6.2 1.2.7 1.7.5.5 1.1.7 1.7.7s1.2-.2 1.7-.7c.4-.4.7-1 .7-1.7 0-.6-.2-1.2-.7-1.7-1-.9-2.5-.9-3.4 0zm1.9 1.9c-.1.1-.3.1-.5 0-.1-.1-.1-.2-.1-.2 0-.1 0-.2.1-.2.1-.1.2-.1.2-.1.1 0 .2 0 .2.1.1.1.1.2.1.2.1 0 .1.1 0 .2z"></path></g></symbol><symbol viewBox="0 0 45.2 45" id="icon-edit"><g fill="currentColor"><path d="M44.4 7L38.2.8l-.1-.1c-1-1-2.8-.9-3.8.1l-2.4 2.4-20.5 20.5c-.1.1-.2.3-.3.4-.3.1-.5.4-.6.7L8.6 35.4c-.1.3 0 .7.3.9.2.2.4.3.7.3h.2l10.5-1.9c.3-.1.6-.3.7-.6.1-.1.3-.2.4-.3l19.2-19.2 3.8-3.8c.5-.5.8-1.2.8-1.9S45 7.5 44.4 7zM12.1 27.1l6 6-7.2 1.3 1.2-7.3zm8.1 5.2L12.9 25l19-19 7.3 7.3-19 19zM43 9.5l-2.4 2.4-7.3-7.3 2.4-2.4c.3-.3.7-.3 1 0L43 8.4c.1.1.2.3.2.5s0 .4-.2.6z"></path><path d="M39 22c-.6 0-1 .4-1 1v19c0 .6-.4 1-1 1H3c-.6 0-1-.4-1-1V8c0-.6.4-1 1-1h18c.6 0 1-.4 1-1s-.4-1-1-1H3C1.3 5 0 6.3 0 8v34c0 1.7 1.3 3 3 3h34c1.7 0 3-1.3 3-3V23c0-.6-.4-1-1-1z"></path></g></symbol><symbol viewBox="0 0 52.2 47.2" id="icon-home"><path d="M51.1 20.3L27.8.6c-1-.8-2.4-.8-3.4 0L1.1 20.3c-1.2 1-1.4 2.8-.5 4.1 1 1.3 2.9 1.6 4.2.6L7 23.1v20.7c0 1.9 1.5 3.4 3.4 3.4h32.1c1.9 0 3.4-1.5 3.4-3.4V23.7l1.3 1.2c.5.5 1.2.7 1.9.7h.2c.8-.1 1.5-.4 2-1 0-.1.1-.1.1-.2 1.1-1.3.9-3.1-.3-4.1zm-32 24.9V33.3c0-3.7 3-6.8 6.8-6.8s6.8 3 6.8 6.8v11.9H19.1zm24.8-1.4c0 .8-.6 1.4-1.4 1.4h-7.8V33.3c0-4.8-3.9-8.8-8.8-8.8s-8.8 3.9-8.8 8.8v11.9h-6.7c-.8 0-1.4-.6-1.4-1.4V21.5v-.1l16.4-14c.4-.4 1-.4 1.5 0l17 14.6v21.8zm6-20.6c-.2.2-.4.3-.7.3-.3 0-.5-.1-.7-.2l-2.9-2.4c-.1-.1-.2-.2-.4-.3L28.1 5.9c-.6-.5-1.3-.8-2-.8s-1.4.3-2 .7L3.6 23.4c-.4.3-1.1.2-1.4-.2-.3-.4-.3-1 .2-1.4L25.7 2.2c.2-.2.6-.2.9 0l23.3 19.7c.3.3.4.9 0 1.3z" fill="currentColor"></path></symbol><symbol viewBox="0 0 52.2 48" id="icon-journal"><g fill="currentColor"><path d="M49 0H3.2C1.4 0 0 1.4 0 3.2V47c0 .6.4 1 1 1h48c1.8 0 3.2-1.4 3.2-3.2V3.2C52.2 1.4 50.8 0 49 0zm1.2 44.8c0 .7-.5 1.2-1.2 1.2H2V3.2C2 2.5 2.5 2 3.2 2H49c.7 0 1.2.5 1.2 1.2v41.6z"></path><path d="M44.6 6.6H7.4c-.6 0-1 .4-1 1v13.1c0 .6.4 1 1 1h37.2c.6 0 1-.4 1-1V7.6c0-.6-.4-1-1-1zm-1 13.1H8.4V8.6h35.2v11.1zM27.1 25.2H7.4c-.6 0-1 .4-1 1v13.1c0 .6.4 1 1 1h19.7c.6 0 1-.4 1-1V26.2c0-.6-.5-1-1-1zm-1 13.1H8.4V27.2h17.7v11.1zM44.6 25.2H31.5c-.6 0-1 .4-1 1s.4 1 1 1h13.1c.6 0 1-.4 1-1s-.4-1-1-1zM44.6 29.6H31.5c-.6 0-1 .4-1 1s.4 1 1 1h13.1c.6 0 1-.4 1-1s-.4-1-1-1zM44.6 34H31.5c-.6 0-1 .4-1 1s.4 1 1 1h13.1c.6 0 1-.4 1-1s-.4-1-1-1zM44.6 38.3H31.5c-.6 0-1 .4-1 1s.4 1 1 1h13.1c.6 0 1-.4 1-1s-.4-1-1-1z"></path></g></symbol><symbol viewBox="0 0 52 33.2" id="icon-review"><g fill="currentColor"><path d="M51.9 16.1C47.1 6.3 36.9 0 26 0 15.1 0 4.9 6.3.1 16.1c-.1.3-.1.7 0 .9 5 10.2 15.3 16.1 25.9 16.1 4.3 0 8.6-.9 12.6-2.9C44.3 27.4 49 22.7 51.8 17c.2-.2.2-.6.1-.9zM37.8 28.4c-13.1 6.4-29 1.1-35.7-11.9C6.7 7.7 16 2 26 2c10 0 19.3 5.7 23.9 14.6-2.6 5.1-6.9 9.3-12.1 11.8z"></path><path d="M26 4.5c-6.7 0-12.1 5.4-12.1 12.1S19.3 28.7 26 28.7s12.1-5.4 12.1-12.1S32.7 4.5 26 4.5zm0 22.2c-5.6 0-10.1-4.5-10.1-10.1S20.4 6.5 26 6.5 36.1 11 36.1 16.6 31.6 26.7 26 26.7z"></path></g></symbol><symbol viewBox="0 0 48.9 51.9" id="icon-search"><path d="M21.1 42.2C9.5 42.2 0 32.8 0 21.1 0 9.5 9.5 0 21.1 0s21.1 9.5 21.1 21.1c0 11.7-9.4 21.1-21.1 21.1zm0-40.2C10.6 2 2 10.6 2 21.1c0 10.5 8.6 19.1 19.1 19.1 10.5 0 19.1-8.6 19.1-19.1C40.2 10.6 31.6 2 21.1 2z" fill="currentColor"></path><path d="M47.9 51.9c-.3 0-.5-.1-.7-.3L33.1 37.5c-.4-.4-.4-1 0-1.4s1-.4 1.4 0l14.1 14.2c.4.4.4 1 0 1.4-.2.1-.4.2-.7.2z" fill="currentColor"></path></symbol><symbol viewBox="0 0 51 51" id="icon-user"><path d="M25.5 26c-7.2 0-13-5.8-13-13s5.8-13 13-13 13 5.8 13 13-5.8 13-13 13zm0-24c-6.1 0-11 4.9-11 11s4.9 11 11 11 11-4.9 11-11-4.9-11-11-11zM50 51H1c-.3 0-.6-.1-.8-.4s-.2-.5-.2-.8c2.1-10.3 10.1-18.2 20.3-20.3 14-2.8 27.8 6.3 30.7 20.3.1.3 0 .6-.2.8-.2.3-.5.4-.8.4zM2.3 49h46.5c-3.2-12.3-15.5-20.1-28-17.5C11.7 33.3 4.5 40.1 2.3 49z" fill="currentColor"></path></symbol></svg>