<svg xmlns="http://www.w3.org/2000/svg" viewBox="0 0 138 155"><style type="text/css">
	.st0{fill:none;enable-background:new    ;}
	.st1{enable-background:new    ;}
	.st2{fill:#854F28;}
</style><path class="st2" d="M52.6 73.8c-4.4-0.5-8.2 2.7-8.7 7 -0.2 2.1 0.4 4.1 1.7 5.8 1.3 1.6 3.2 2.7 5.3 2.9 0.3 0 0.6 0 0.9 0 0 0 0 0 0 0 4 0 7.4-3 7.8-7 0.2-2.1-0.4-4.1-1.7-5.8C56.6 75.1 54.7 74.1 52.6 73.8zM56.9 82.2c-0.3 2.8-2.8 4.8-5.6 4.5 -1.4-0.1-2.6-0.8-3.4-1.9 -0.9-1.1-1.2-2.4-1.1-3.8 0.3-2.6 2.5-4.6 5.1-4.6 0.2 0 0.4 0 0.6 0 1.4 0.1 2.6 0.8 3.4 1.9C56.6 79.5 57 80.9 56.9 82.2z"/><path class="st2" d="M52.9 71.5c0.5 0.1 1.1 0.2 1.6 0.3l1.6-2.4 5.5 7.9c0.4-0.9 1-1.7 1.7-2.4l-0.2-0.3 -1.7-2.4L57.8 67l-1.7-2.4 -6.3-9.1c-2.4-4.1-0.7-8.4 0.6-10.7L60 59.1l1.6 2.5 3.7 5.6 1.6 2.4 1.6 2.4c0.5-0.1 0.9-0.2 1.4-0.2 0.2 0 0.5 0 0.7 0 0.3 0 0.6 0 0.9 0l0.1 0 -0.5-0.7 -2.6-3.9 2.5-3.4c0.1-1.8 0.2-3.5 0.3-5L67 64.8l-3.7-5.6 9.5-13.5c0.3 1.1 0.6 2.5 0.7 4 0.3-0.7 0.6-1.4 0.9-2.1 0.2-0.3 0.6-1 1.2-1.8 -0.5-2.1-1.1-3.5-1.1-3.6 -0.2-0.5-0.6-0.8-1.1-0.8 -0.5-0.1-1 0.2-1.3 0.6L61.7 56.7 51.6 41.5c-0.2-0.4-0.6-0.6-1.1-0.6 -0.4 0-0.9 0.2-1.1 0.5 -0.3 0.3-6.3 8-1.9 15.5 0 0 0 0.1 0.1 0.1l6.9 10 -3.1 4.4c0.1 0 0.3 0 0.4 0C52.1 71.4 52.5 71.5 52.9 71.5z"/><path class="st2" d="M74 85.9c-0.8 0.7-1.8 1.1-2.9 1.2 -2.8 0.2-5.3-1.9-5.5-4.7 -0.2-2.8 1.9-5.3 4.7-5.5 0.1 0 0.3 0 0.4 0 0.3 0 0.6 0 1 0.1 -0.1-0.9-0.2-1.8-0.3-2.8 -0.4 0-0.9 0-1.3 0 -4.3 0.3-7.6 4.1-7.2 8.5 0.3 4.1 3.8 7.3 7.8 7.3 0.2 0 0.4 0 0.6 0 1.5-0.1 2.9-0.6 4.1-1.5 -0.5-0.7-0.8-1.2-1-1.5C74.3 86.6 74.1 86.2 74 85.9z"/><path class="st2" d="M89.6 81.8h-7.3c-0.7 0-1.3 0.6-1.3 1.3s0.6 1.3 1.3 1.3h7.3c0.7 0 1.3-0.6 1.3-1.3S90.3 81.8 89.6 81.8z"/><path class="st2" d="M89.6 77.3h-7.3c-0.7 0-1.3 0.6-1.3 1.3s0.6 1.3 1.3 1.3h7.3c0.7 0 1.3-0.6 1.3-1.3S90.3 77.3 89.6 77.3z"/><path class="st2" d="M89.6 72.7h-7.3c-0.7 0-1.3 0.6-1.3 1.3s0.6 1.3 1.3 1.3h7.3c0.7 0 1.3-0.6 1.3-1.3S90.3 72.7 89.6 72.7z"/><path class="st2" d="M89.6 68.2h-7.3c-0.7 0-1.3 0.6-1.3 1.3s0.6 1.3 1.3 1.3h7.3c0.7 0 1.3-0.6 1.3-1.3S90.3 68.2 89.6 68.2z"/><path class="st2" d="M89.6 63.6h-7.3c-0.7 0-1.3 0.6-1.3 1.3 0 0.7 0.6 1.3 1.3 1.3h7.3c0.7 0 1.3-0.6 1.3-1.3C90.9 64.2 90.3 63.6 89.6 63.6z"/><path class="st2" d="M89.6 54.5h-7.3c-0.7 0-1.3 0.6-1.3 1.3 0 0.7 0.6 1.3 1.3 1.3h7.3c0.7 0 1.3-0.6 1.3-1.3C90.9 55.1 90.3 54.5 89.6 54.5z"/><path class="st2" d="M89.6 59.1h-7.3c-0.7 0-1.3 0.6-1.3 1.3s0.6 1.3 1.3 1.3h7.3c0.7 0 1.3-0.6 1.3-1.3S90.3 59.1 89.6 59.1z"/><path class="st2" d="M89.6 50h-7.3c-0.7 0-1.3 0.6-1.3 1.3s0.6 1.3 1.3 1.3h7.3c0.7 0 1.3-0.6 1.3-1.3S90.3 50 89.6 50z"/><path class="st2" d="M89.7 86.2h-9.3c0 0 0 0 0 0 -0.4 0-1.1-0.8-1.6-1.6 -1.3-2.5-2.7-6.8-2.7-17.4 0-10.6 1.5-14.9 2.7-17.4 0.4-0.7 1.2-1.6 1.6-1.6 0 0 0 0 0 0h9.3c0.8 0 1.4-0.6 1.4-1.4s-0.6-1.4-1.4-1.4h-9.3v0c-2.3 0-3.7 2.6-4 3.1 -1.4 2.8-3 7.4-3 18.6h0c0 0 0 0 0 0 0 0 0 0 0 0h0c0 11.2 1.6 15.8 3 18.6 0.3 0.5 1.7 3.1 4 3.1v0h9.3c0.8 0 1.4-0.6 1.4-1.4S90.5 86.2 89.7 86.2z"/><circle class="st2" cx="61.7" cy="67" r="1.5"/></svg>