<?xml version="1.0" encoding="utf-8"?>
<!-- Generator: Adobe Illustrator 21.0.0, SVG Export Plug-In . SVG Version: 6.00 Build 0)  -->
<svg version="1.1" id="Layer_1" xmlns="http://www.w3.org/2000/svg" xmlns:xlink="http://www.w3.org/1999/xlink" x="0px" y="0px"
	 viewBox="0 0 138 155" style="enable-background:new 0 0 138 155;" xml:space="preserve">
<style type="text/css">
	.st0{fill:none;enable-background:new    ;}
	.st1{enable-background:new    ;}
	.st2{fill:#854F28;}
</style>
<path class="st0" d="z"/>
<g class="st1">
	<path class="st2" d="M35.5,127.1c-0.2,0-0.4-0.1-0.5-0.2l-5.6-5.3v4.8c0,0.2-0.1,0.4-0.2,0.5c-0.1,0.1-0.3,0.2-0.5,0.2
		c-0.2,0-0.4-0.1-0.5-0.2c-0.1-0.1-0.2-0.3-0.2-0.5v-11.6c0-0.2,0.1-0.4,0.2-0.5c0.1-0.1,0.3-0.2,0.5-0.2c0.2,0,0.4,0.1,0.5,0.2
		c0.1,0.1,0.2,0.3,0.2,0.5v4.8l5.6-5.3c0.1-0.1,0.3-0.2,0.5-0.2c0.2,0,0.4,0.1,0.5,0.2c0.1,0.2,0.2,0.3,0.2,0.5
		c0,0.2-0.1,0.4-0.2,0.5l-5.5,5.2l5.5,5.3c0.1,0.1,0.2,0.3,0.2,0.5c0,0.2-0.1,0.4-0.2,0.5C35.9,127.1,35.8,127.1,35.5,127.1z"/>
	<path class="st2" d="M45.4,123.3h-6.3c0,0.3,0.1,0.7,0.3,0.9c0.2,0.3,0.4,0.5,0.6,0.8c0.2,0.2,0.5,0.4,0.8,0.5
		c0.3,0.1,0.6,0.2,1,0.2c0.2,0,0.4,0,0.6,0c0.2,0,0.3-0.1,0.5-0.2c0.1-0.1,0.3-0.2,0.4-0.3s0.3-0.2,0.5-0.4c0.1-0.1,0.1-0.1,0.2-0.1
		c0.1,0,0.2-0.1,0.3-0.1c0.2,0,0.4,0.1,0.5,0.2c0.1,0.1,0.2,0.3,0.2,0.5c0,0.1,0,0.2-0.1,0.3c0,0.1-0.1,0.1-0.1,0.2
		c-0.2,0.2-0.4,0.4-0.6,0.5c-0.2,0.2-0.5,0.3-0.8,0.4c-0.3,0.1-0.5,0.2-0.8,0.2s-0.6,0.1-0.8,0.1c-0.6,0-1.1-0.1-1.7-0.3
		s-1-0.5-1.4-0.9c-0.4-0.4-0.7-0.8-0.9-1.3c-0.2-0.5-0.3-1.1-0.3-1.6c0-0.6,0.1-1.1,0.3-1.6c0.2-0.5,0.5-1,0.9-1.4
		c0.4-0.4,0.8-0.7,1.4-0.9s1.1-0.3,1.7-0.3c0.6,0,1.1,0.1,1.6,0.3c0.5,0.2,0.9,0.5,1.3,0.8s0.7,0.8,0.9,1.2s0.4,1,0.4,1.6
		c0,0.2-0.1,0.4-0.2,0.5S45.6,123.3,45.4,123.3z M41.9,120.1c-0.6,0-1.1,0.2-1.6,0.5s-0.8,0.7-1,1.2h5.2c-0.2-0.5-0.6-0.9-1-1.2
		C42.9,120.3,42.4,120.1,41.9,120.1z"/>
	<path class="st2" d="M54.2,121.1c-0.1,0-0.2,0-0.3-0.1c-0.1,0-0.1-0.1-0.2-0.1c-0.3-0.3-0.6-0.5-0.9-0.6s-0.7-0.2-1.1-0.2
		c-0.4,0-0.8,0.1-1.1,0.2c-0.3,0.1-0.6,0.3-0.9,0.6c-0.3,0.3-0.5,0.5-0.6,0.9c-0.1,0.3-0.2,0.7-0.2,1.1s0.1,0.7,0.2,1.1
		c0.1,0.3,0.4,0.6,0.6,0.9s0.6,0.5,0.9,0.6c0.3,0.1,0.7,0.2,1.1,0.2c0.4,0,0.8-0.1,1.1-0.2c0.3-0.1,0.6-0.3,0.9-0.6
		c0.1-0.1,0.1-0.1,0.2-0.1c0.1,0,0.2-0.1,0.3-0.1c0.2,0,0.4,0.1,0.5,0.2c0.1,0.1,0.2,0.3,0.2,0.5c0,0.1,0,0.2-0.1,0.3
		c0,0.1-0.1,0.2-0.1,0.2c-0.2,0.2-0.4,0.4-0.6,0.5c-0.2,0.2-0.5,0.3-0.8,0.4s-0.5,0.2-0.8,0.2s-0.5,0.1-0.8,0.1
		c-0.6,0-1.1-0.1-1.7-0.3s-1-0.5-1.4-0.9c-0.4-0.4-0.7-0.8-0.9-1.3c-0.2-0.5-0.3-1.1-0.3-1.6c0-0.6,0.1-1.1,0.3-1.6
		c0.2-0.5,0.5-1,0.9-1.4c0.4-0.4,0.8-0.7,1.4-0.9s1.1-0.3,1.7-0.3c0.3,0,0.5,0,0.8,0.1c0.3,0.1,0.5,0.1,0.8,0.2s0.5,0.2,0.8,0.4
		c0.2,0.2,0.5,0.3,0.6,0.5c0.1,0.1,0.1,0.1,0.1,0.2c0,0.1,0.1,0.2,0.1,0.3c0,0.2-0.1,0.4-0.2,0.5C54.6,121.1,54.4,121.1,54.2,121.1z
		"/>
	<path class="st2" d="M63.9,127.1c-0.2,0-0.4-0.1-0.5-0.2c-0.1-0.1-0.2-0.3-0.2-0.5v-0.3c-0.4,0.3-0.8,0.6-1.3,0.8
		c-0.5,0.2-1,0.3-1.5,0.3c-0.6,0-1.1-0.1-1.7-0.3s-1-0.5-1.4-0.9c-0.4-0.4-0.7-0.8-0.9-1.3c-0.2-0.5-0.3-1.1-0.3-1.6
		c0-0.6,0.1-1.1,0.3-1.6c0.2-0.5,0.5-1,0.9-1.4c0.4-0.4,0.8-0.7,1.4-0.9s1.1-0.3,1.7-0.3c0.5,0,1,0.1,1.5,0.3
		c0.5,0.2,0.9,0.4,1.3,0.8v-0.3c0-0.2,0.1-0.4,0.2-0.5c0.1-0.1,0.3-0.2,0.5-0.2c0.2,0,0.4,0.1,0.5,0.2c0.1,0.1,0.2,0.3,0.2,0.5v7
		c0,0.2-0.1,0.4-0.2,0.5C64.2,127.1,64.1,127.1,63.9,127.1z M60.3,120.1c-0.4,0-0.8,0.1-1.1,0.2c-0.3,0.1-0.6,0.3-0.9,0.6
		c-0.3,0.3-0.5,0.5-0.6,0.9c-0.1,0.3-0.2,0.7-0.2,1.1s0.1,0.7,0.2,1.1c0.1,0.3,0.4,0.6,0.6,0.9s0.6,0.5,0.9,0.6
		c0.3,0.1,0.7,0.2,1.1,0.2c0.4,0,0.7-0.1,1.1-0.2s0.6-0.3,0.9-0.6c0.3-0.3,0.5-0.5,0.6-0.9c0.1-0.3,0.2-0.7,0.2-1.1
		s-0.1-0.7-0.2-1.1c-0.1-0.3-0.3-0.6-0.6-0.9c-0.3-0.3-0.6-0.5-0.9-0.6S60.7,120.1,60.3,120.1z"/>
	<path class="st2" d="M68.8,119.1c0.5-0.3,1.1-0.5,1.7-0.5c0.4,0,0.8,0.1,1.2,0.2c0.4,0.2,0.7,0.4,1,0.7s0.5,0.6,0.7,1
		c0.2,0.4,0.2,0.8,0.2,1.2v4.7c0,0.2-0.1,0.4-0.2,0.5c-0.1,0.1-0.3,0.2-0.5,0.2c-0.2,0-0.4-0.1-0.5-0.2c-0.1-0.1-0.2-0.3-0.2-0.5
		v-4.7c0-0.2,0-0.4-0.1-0.6c-0.1-0.2-0.2-0.4-0.3-0.5s-0.3-0.3-0.5-0.3c-0.2-0.1-0.4-0.1-0.6-0.1s-0.4,0-0.6,0.1
		c-0.2,0.1-0.4,0.2-0.5,0.3c-0.1,0.1-0.3,0.3-0.3,0.5c-0.1,0.2-0.1,0.4-0.1,0.6c0,0,0,0.1,0,0.1v4.6c0,0.2-0.1,0.4-0.2,0.5
		c-0.1,0.1-0.3,0.2-0.5,0.2c-0.2,0-0.4-0.1-0.5-0.2c-0.1-0.1-0.2-0.3-0.2-0.5v-7.1c0-0.2,0.1-0.4,0.2-0.5c0.1-0.1,0.3-0.2,0.5-0.2
		C68.5,118.5,68.7,118.7,68.8,119.1z"/>
	<path class="st2" d="M79.8,120.1h-1.3v6.3c0,0.2-0.1,0.4-0.2,0.5c-0.1,0.1-0.3,0.2-0.5,0.2c-0.2,0-0.4-0.1-0.5-0.2
		c-0.1-0.1-0.2-0.3-0.2-0.5v-6.3h-1.4c-0.2,0-0.4-0.1-0.5-0.2s-0.2-0.3-0.2-0.5c0-0.2,0.1-0.4,0.2-0.5s0.3-0.2,0.5-0.2H77v-2.4
		c0-0.2,0.1-0.4,0.2-0.5c0.1-0.1,0.3-0.2,0.5-0.2c0.2,0,0.4,0.1,0.5,0.2c0.1,0.1,0.2,0.3,0.2,0.5v2.4h1.3c0.2,0,0.4,0.1,0.5,0.2
		s0.2,0.3,0.2,0.5c0,0.2-0.1,0.4-0.2,0.5S80,120.1,79.8,120.1z"/>
	<path class="st2" d="M83.3,117.5c-0.3,0-0.5-0.1-0.7-0.3c-0.2-0.2-0.3-0.4-0.3-0.7c0-0.3,0.1-0.5,0.3-0.7c0.2-0.2,0.4-0.3,0.7-0.3
		c0.3,0,0.5,0.1,0.7,0.3c0.2,0.2,0.3,0.4,0.3,0.7c0,0.3-0.1,0.5-0.3,0.7C83.8,117.4,83.5,117.5,83.3,117.5z M83.3,127.1
		c-0.2,0-0.4-0.1-0.5-0.2c-0.1-0.1-0.2-0.3-0.2-0.5v-7c0-0.2,0.1-0.4,0.2-0.5s0.3-0.2,0.5-0.2s0.4,0.1,0.5,0.2s0.2,0.3,0.2,0.5v7
		c0,0.2-0.1,0.4-0.2,0.5C83.6,127.1,83.5,127.1,83.3,127.1z"/>
	<path class="st2" d="M92.7,119.9l-3.2,3l3.2,3c0.2,0.1,0.2,0.3,0.2,0.5c0,0.2-0.1,0.4-0.2,0.5c-0.1,0.1-0.3,0.2-0.5,0.2
		c-0.2,0-0.4-0.1-0.5-0.2l-3.2-3.1v2.5c0,0.2-0.1,0.4-0.2,0.5c-0.1,0.1-0.3,0.2-0.5,0.2s-0.4-0.1-0.5-0.2c-0.1-0.1-0.2-0.3-0.2-0.5
		v-11.6c0-0.2,0.1-0.4,0.2-0.5c0.1-0.1,0.3-0.2,0.5-0.2s0.4,0.1,0.5,0.2c0.1,0.1,0.2,0.3,0.2,0.5v7l3.2-3.1c0.1-0.1,0.3-0.2,0.5-0.2
		c0.2,0,0.4,0.1,0.5,0.2c0.1,0.1,0.2,0.3,0.2,0.5S92.8,119.7,92.7,119.9z"/>
	<path class="st2" d="M101.7,127.1c-0.2,0-0.4-0.1-0.5-0.2c-0.1-0.1-0.2-0.3-0.2-0.5v-0.3c-0.4,0.3-0.8,0.6-1.3,0.8
		c-0.5,0.2-1,0.3-1.5,0.3c-0.6,0-1.1-0.1-1.7-0.3c-0.5-0.2-1-0.5-1.4-0.9c-0.4-0.4-0.7-0.8-0.9-1.3c-0.2-0.5-0.3-1.1-0.3-1.6
		c0-0.6,0.1-1.1,0.3-1.6c0.2-0.5,0.5-1,0.9-1.4c0.4-0.4,0.8-0.7,1.4-0.9c0.5-0.2,1.1-0.3,1.7-0.3c0.5,0,1,0.1,1.5,0.3
		c0.5,0.2,0.9,0.4,1.3,0.8v-0.3c0-0.2,0.1-0.4,0.2-0.5s0.3-0.2,0.5-0.2c0.2,0,0.4,0.1,0.5,0.2c0.1,0.1,0.2,0.3,0.2,0.5v7
		c0,0.2-0.1,0.4-0.2,0.5C102,127.1,101.9,127.1,101.7,127.1z M98.1,120.1c-0.4,0-0.8,0.1-1.1,0.2c-0.3,0.1-0.6,0.3-0.9,0.6
		c-0.3,0.3-0.5,0.5-0.6,0.9c-0.1,0.3-0.2,0.7-0.2,1.1s0.1,0.7,0.2,1.1c0.1,0.3,0.4,0.6,0.6,0.9c0.3,0.3,0.6,0.5,0.9,0.6
		c0.3,0.1,0.7,0.2,1.1,0.2s0.7-0.1,1.1-0.2s0.6-0.3,0.9-0.6c0.3-0.3,0.5-0.5,0.6-0.9c0.1-0.3,0.2-0.7,0.2-1.1s-0.1-0.7-0.2-1.1
		s-0.3-0.6-0.6-0.9c-0.3-0.3-0.6-0.5-0.9-0.6S98.5,120.1,98.1,120.1z"/>
	<path class="st2" d="M106.6,119.1c0.5-0.3,1.1-0.5,1.7-0.5c0.4,0,0.8,0.1,1.2,0.2c0.4,0.2,0.7,0.4,1,0.7c0.3,0.3,0.5,0.6,0.7,1
		c0.2,0.4,0.2,0.8,0.2,1.2v4.7c0,0.2-0.1,0.4-0.2,0.5c-0.1,0.1-0.3,0.2-0.5,0.2c-0.2,0-0.4-0.1-0.5-0.2c-0.1-0.1-0.2-0.3-0.2-0.5
		v-4.7c0-0.2,0-0.4-0.1-0.6c-0.1-0.2-0.2-0.4-0.3-0.5c-0.1-0.1-0.3-0.3-0.5-0.3c-0.2-0.1-0.4-0.1-0.6-0.1c-0.2,0-0.4,0-0.6,0.1
		c-0.2,0.1-0.4,0.2-0.5,0.3c-0.1,0.1-0.3,0.3-0.3,0.5c-0.1,0.2-0.1,0.4-0.1,0.6c0,0,0,0.1,0,0.1v4.6c0,0.2-0.1,0.4-0.2,0.5
		c-0.1,0.1-0.3,0.2-0.5,0.2c-0.2,0-0.4-0.1-0.5-0.2c-0.1-0.1-0.2-0.3-0.2-0.5v-7.1c0-0.2,0.1-0.4,0.2-0.5c0.1-0.1,0.3-0.2,0.5-0.2
		C106.3,118.5,106.5,118.7,106.6,119.1z"/>
</g>
<path class="st2" d="M68.6,75.5c0-2.5-2-4.5-4.5-4.5c-2.5,0-4.5,2-4.5,4.5c0,2.5,2,4.5,4.5,4.5C66.6,80,68.6,78,68.6,75.5z
	 M64.2,79.1c-2,0-3.6-1.6-3.6-3.6c0-2,1.6-3.6,3.6-3.6c2,0,3.6,1.6,3.6,3.6C67.8,77.5,66.2,79.1,64.2,79.1z"/>
<path class="st2" d="M77.5,71C75,71,73,73,73,75.5c0,2.5,2,4.5,4.5,4.5c2.5,0,4.5-2,4.5-4.5C82,73,80,71,77.5,71z M77.5,79.1
	c-2,0-3.6-1.6-3.6-3.6c0-2,1.6-3.6,3.6-3.6c2,0,3.6,1.6,3.6,3.6C81.1,77.5,79.5,79.1,77.5,79.1z"/>
<path class="st2" d="M76,87.9C76,87.9,76,87.9,76,87.9c0-0.1,0-0.1-0.1-0.1c0,0,0,0-0.1-0.1c0,0,0,0,0,0c0,0,0,0,0,0
	c0,0-0.1,0-0.1,0c0,0-0.1,0-0.1,0c0,0-0.1,0-0.1,0c0,0-0.1,0-0.1,0c0,0,0,0,0,0c0,0-1.1,0.4-1.8-0.4c-0.5-0.5-1-0.7-1.5-0.6
	c-0.8,0.1-1.3,0.7-1.3,0.8c0,0,0,0,0,0c0,0,0,0-0.1-0.1c-0.2-0.2-0.6-0.7-1.3-0.7c-0.5,0-0.9,0.2-1.4,0.6c-0.8,0.8-1.8,0.4-1.8,0.4
	c0,0,0,0,0,0c0,0-0.1,0-0.1,0c0,0-0.1,0-0.1,0c0,0-0.1,0-0.1,0c0,0-0.1,0-0.1,0c0,0,0,0,0,0c0,0,0,0,0,0c0,0,0,0-0.1,0.1
	c0,0,0,0,0,0.1c0,0,0,0,0,0c0,0,0,0,0,0c0,0,0,0.1,0,0.1c0,0,0,0.1,0,0.1c0,0,0,0.1,0,0.1c0,0,0,0.1,0,0.1c0,0,0,0,0,0
	c0,0,0,0,0,0.1c0,0,0,0,0,0c0.3,0.4,0.7,0.6,1.2,0.8c-0.1,0.1-0.2,0.4,0,0.5c1.1,1.5,1.6,1.8,3.9,1.8c2.3,0,3-0.5,3.9-1.9
	c0.1-0.2,0.1-0.4,0-0.5c0.5-0.1,0.9-0.4,1.2-0.8c0,0,0,0,0,0c0,0,0,0,0-0.1c0,0,0,0,0,0c0,0,0-0.1,0-0.1c0,0,0-0.1,0-0.1
	c0,0,0-0.1,0-0.1C76,88,76,88,76,87.9C76,87.9,76,87.9,76,87.9z M68.7,87.8c0.3-0.3,0.5-0.4,0.7-0.4c0.3,0,0.6,0.3,0.7,0.5
	c0.2,0.3,0.5,0.4,0.7,0.4c0.2,0,0.5-0.1,0.7-0.4c0.1-0.1,0.3-0.4,0.7-0.4c0.3,0,0.5,0.1,0.8,0.4c0.3,0.3,0.6,0.4,0.9,0.6
	c-0.4,0-0.7,0-0.9,0c-0.6,0-1.1,0.2-1.5,0.4c-0.3,0.2-1,0.2-1.3,0c-0.4-0.2-1-0.4-1.5-0.4c-0.2,0-0.5,0-0.9,0
	C68.1,88.3,68.4,88.1,68.7,87.8z M70.8,90.6c-2,0-2.2-0.2-3.1-1.4c0.4,0,0.7,0.1,1,0c0.4,0,0.8,0.1,1,0.2c0.3,0.2,0.7,0.3,1.1,0.3
	c0.4,0,0.8-0.1,1.1-0.3c0.2-0.1,0.6-0.3,1-0.3c0.3,0,0.6,0,1,0C73.3,90.2,72.8,90.6,70.8,90.6z"/>
<g>
	<g>
		<path class="st2" d="M70.8,98.1c-4.6,0-11.1-4.6-14.2-13C56.3,85,56,84.9,56,84.9c-1.2-0.6-2.8-1.8-3.6-4.3
			c-0.6-2-1.1-4.1-0.2-5.6c-1.3-2.2-3.7-7.6-0.8-14.3c1.4-3.3,4.2-6.4,8.6-9.5c-0.1-0.3-2.5-6,1.9-10.9c2.3-2.6,6.4-4.2,10.9-4.3
			c0.1,0,0.3,0,0.4,0c3.9,0,7.5,1.2,9.5,3.3c1.8,1.8,2.6,3.9,2.5,6.3c-0.1,1.7-0.6,3.5-1.7,5.3c0,0,0.1,0.1,0.1,0.1
			c3.3,3.3,5.1,5.8,6.8,9.7c3,6.8,0.5,12.2-0.8,14.4c1,1.8,0.1,4.4-0.3,5.6c-0.9,2.8-2.8,3.9-3.8,4.3c0,0-0.3,0.1-0.7,0.2
			C81.7,93.2,75.1,98.1,70.8,98.1z M57.7,82.7c0.1,0,0.3,0,0.4,0.1c0.3,0.1,0.6,0.4,0.7,0.8c2.5,7.5,8.1,11.9,12,11.9
			c3.6,0,9.2-4.8,11.8-12c0.1-0.4,0.4-0.6,0.8-0.8c0.1-0.1,0.3-0.1,0.5-0.1c0,0,0,0,0.1,0c0.3,0,2-0.4,2.8-2.9
			c0.5-1.6,1-3.5,0.1-3.7c-0.1,0-0.3-0.1-0.4-0.1c-0.2,0-0.4,0-0.6,0.1c-0.2,0.1-0.3,0.1-0.5,0.1c-0.3,0-0.5-0.1-0.7-0.2
			c-0.4-0.2-0.6-0.6-0.6-1.1c0-0.3,0-0.6,0-0.9C83.3,69,73,62.4,71.1,62.1c-0.2,0-0.4-0.1-0.5-0.2c-5.4,3.8-11.7,8.5-12.9,12.3
			c0,0.2,0,0.5,0,0.7c0,0.4-0.2,0.8-0.6,1.1c-0.2,0.1-0.5,0.2-0.7,0.2c-0.2,0-0.3,0-0.5-0.1C55.6,76,55.3,76,55.1,76
			c-0.1,0-0.3,0-0.4,0.1c-0.1,0-0.2,0.1-0.2,0.1c-0.4,0.3-0.3,1.5,0.3,3.7C55.6,82.2,57.4,82.7,57.7,82.7z M86.6,73.4
			c0.3,0,0.6,0,0.8,0.1c1.1-1.9,2.9-6.3,0.5-11.8c-1.3-3-2.7-5.4-6-8.7c-0.8,1-1.7,1.9-2.6,2.7c-1.2,1-3.2,2.4-5.6,4l-0.6,0.4
			C77.1,61.9,85.4,67.6,86.6,73.4z M73.2,42.4c0.7,0,1.2,0.5,1.3,1.2c0.2,1.7-1.7,2.9-5.9,5.3c-4.9,2.8-12.3,7.1-14.8,12.8
			c-2.4,5.5-0.6,9.9,0.5,11.8c0.3-0.1,0.5-0.1,0.8-0.1c1.8-5.4,10.7-11.4,17.2-15.8c2.3-1.5,4.2-2.9,5.3-3.8
			c2.3-1.9,4.7-5.1,4.9-8.3c0.1-1.6-0.5-3.1-1.7-4.3c-1.5-1.6-4.4-2.5-7.7-2.5c-0.1,0-0.2,0-0.4,0c-3.8,0.1-7.1,1.4-9,3.4
			c-2.7,3-2,6.5-1.6,7.7c1.8-1.2,3.6-2.2,5.1-3.1c1.2-0.7,4.1-2.4,4.6-2.9c0-0.3,0.1-0.5,0.3-0.7c0.2-0.3,0.5-0.4,0.9-0.5
			C73.1,42.4,73.1,42.4,73.2,42.4z"/>
		<path class="st2" d="M90,60.8c-1.7-3.8-3.4-6.4-6.7-9.6c-0.1-0.1-0.3-0.2-0.4-0.2c1-1.7,1.8-3.6,1.9-5.5c0.1-2.3-0.7-4.3-2.4-5.9
			c-1.9-2-5.4-3.2-9.2-3.2c-0.1,0-0.3,0-0.4,0c-4.4,0.1-8.3,1.6-10.6,4.1C57.8,45.4,60.3,51,60.4,51c0,0.1,0.1,0.2,0.2,0.3
			c-3.6,2.5-7.1,5.7-8.8,9.6c-3,6.8-0.3,12.3,0.9,14.1c-1,1.3-0.5,3.4,0.1,5.5c0.7,2.4,2.2,3.5,3.3,4c0,0,0.4,0.2,0.8,0.3
			c3,8.4,9.4,12.9,13.9,12.9c4.2,0,10.6-5,13.7-13c0.4-0.1,0.8-0.2,0.8-0.3c0.9-0.4,2.6-1.4,3.5-4c0.4-1.2,1.3-3.8,0.2-5.4
			C90.2,73.2,93,67.7,90,60.8z M83.6,83.1c-0.2,0.1-0.4,0.3-0.5,0.5C80.4,91,74.6,96,70.8,96c-4.1,0-9.8-4.6-12.4-12.2
			c-0.1-0.2-0.2-0.4-0.5-0.5c-0.1,0-0.2-0.1-0.3-0.1c-0.3-0.1-2.4-0.5-3.2-3.2c-0.5-1.8-1-3.6-0.2-4.2c0.1-0.1,0.2-0.1,0.3-0.1
			c0.2-0.1,0.3-0.1,0.5-0.1c0.3,0,0.5,0.1,0.8,0.2c0.1,0,0.2,0.1,0.3,0.1c0.2,0,0.3,0,0.5-0.1c0.2-0.2,0.4-0.4,0.4-0.7
			c0-0.3,0-0.5,0-0.8c1.2-3.9,7.4-8.6,13.4-12.8c0.1,0.2,0.3,0.3,0.6,0.3c2.1,0.3,12.6,6.9,13.4,12.4c0,0.3,0,0.6,0,0.9
			c0,0.3,0.1,0.6,0.4,0.7c0.1,0.1,0.3,0.1,0.5,0.1c0.1,0,0.2,0,0.3-0.1c0.3-0.1,0.5-0.2,0.8-0.2c0.2,0,0.4,0,0.5,0.1
			c0.6,0.2,1.3,0.9,0.1,4.3c-0.9,2.8-2.9,3.1-3.2,3.2c0,0-0.1,0-0.1,0C83.8,83.1,83.7,83.1,83.6,83.1z M68.4,48.5
			c4.1-2.3,5.8-3.4,5.7-4.9c0-0.4-0.4-0.8-0.9-0.8c0,0-0.1,0-0.1,0c-0.2,0-0.4,0.1-0.6,0.3c-0.1,0.2-0.2,0.4-0.2,0.6
			c-0.2,0.6-3.1,2.2-4.8,3.2c-1.7,1-3.6,2.1-5.5,3.3c0,0,0,0,0-0.1c0,0-2-4.6,1.5-8.6c1.9-2.1,5.4-3.5,9.3-3.6c0.1,0,0.2,0,0.4,0
			c3.4,0,6.3,1,8,2.6c1.3,1.3,1.9,2.9,1.9,4.7c-0.2,3.3-2.7,6.6-5,8.6c-1.1,0.9-3.1,2.3-5.4,3.8C66,62.3,57,68.4,55.5,73.8
			c0,0,0,0,0,0.1c-0.1,0-0.2,0-0.3,0c-0.4,0-0.7,0.1-1,0.2c-1.1-1.7-3.3-6.4-0.7-12.4C56,55.6,63.4,51.3,68.4,48.5z M87.6,74
			c-0.3-0.1-0.7-0.2-1.1-0.2c-0.1,0-0.2,0-0.3,0c-0.9-6-10.4-12.2-14-13.6c0.4-0.3,0.9-0.6,1.3-0.9c2.3-1.6,4.3-2.9,5.5-3.9
			c1-0.8,2-1.9,2.9-3.1c0,0.1,0.1,0.1,0.1,0.2c3.5,3.5,4.9,5.9,6.3,9C91,67.6,88.7,72.3,87.6,74C87.6,74,87.6,74,87.6,74z"/>
		<path class="st2" d="M55,70.5c-0.7,0-1.3-0.6-1.3-1.3c0-8.8,16.9-18.1,17.6-18.5c0.2-0.1,0.4-0.2,0.6-0.2c0.5,0,0.9,0.3,1.1,0.7
			c0.2,0.3,0.2,0.7,0.1,1c-0.1,0.3-0.3,0.6-0.6,0.8c-0.2,0.1-16.3,8.9-16.3,16.2C56.3,69.9,55.7,70.5,55,70.5z"/>
		<path class="st2" d="M55,70.1c0.5,0,0.9-0.4,0.9-0.9c0-7.5,16.3-16.5,16.5-16.5c0.2-0.1,0.4-0.3,0.4-0.5c0.1-0.2,0-0.5-0.1-0.7
			c-0.2-0.3-0.4-0.5-0.8-0.5c-0.1,0-0.3,0-0.4,0.1c-0.7,0.4-17.4,9.5-17.4,18.1C54.1,69.7,54.5,70.1,55,70.1z"/>
		<path class="st2" d="M87.2,70.5c-0.7,0-1.3-0.6-1.3-1.3c0-3.8-6.2-9.5-7.9-10.4c-0.6-0.4-0.8-1.1-0.5-1.8c0.2-0.4,0.7-0.7,1.1-0.7
			c0.2,0,0.4,0.1,0.6,0.2c1.6,0.9,9.2,7.2,9.2,12.7C88.5,69.9,87.9,70.5,87.2,70.5z"/>
		<path class="st2" d="M79.1,56.9c-0.1-0.1-0.3-0.1-0.4-0.1c-0.3,0-0.6,0.2-0.8,0.4c-0.2,0.4-0.1,0.9,0.3,1.2
			c1.5,0.9,8.1,6.7,8.1,10.8c0,0.5,0.4,0.9,0.9,0.9s0.9-0.4,0.9-0.9C88.1,63.9,80.6,57.7,79.1,56.9z"/>
	</g>
</g>
<path class="st2" d="M79,75.5c0,0.2,0.2,0.4,0.4,0.4h0.8c0.2,0,0.4-0.2,0.4-0.4c0-0.2-0.2-0.4-0.4-0.4h-0.8
	C79.2,75.1,79,75.2,79,75.5z"/>
<path class="st2" d="M76.1,75.5c0-0.2-0.2-0.4-0.4-0.4h-0.8c-0.2,0-0.4,0.2-0.4,0.4c0,0.2,0.2,0.4,0.4,0.4h0.8
	C75.9,75.9,76.1,75.7,76.1,75.5z"/>
<path class="st2" d="M77.5,72.4c-0.2,0-0.4,0.2-0.4,0.4v0.8c0,0.2,0.2,0.4,0.4,0.4c0.2,0,0.4-0.2,0.4-0.4v-0.8
	C78,72.6,77.8,72.4,77.5,72.4z"/>
<path class="st2" d="M77.5,77c-0.2,0-0.4,0.2-0.4,0.4v0.8c0,0.2,0.2,0.4,0.4,0.4c0.2,0,0.4-0.2,0.4-0.4v-0.8
	C78,77.1,77.8,77,77.5,77z"/>
<path class="st2" d="M79.2,76.5c-0.2-0.2-0.4-0.2-0.6,0c-0.2,0.2-0.2,0.4,0,0.6l0.6,0.6c0.1,0.1,0.2,0.1,0.3,0.1
	c0.1,0,0.2,0,0.3-0.1c0.2-0.2,0.2-0.4,0-0.6L79.2,76.5z"/>
<path class="st2" d="M75.9,74.5c0.1,0.1,0.2,0.1,0.3,0.1c0.1,0,0.2,0,0.3-0.1c0.2-0.2,0.2-0.4,0-0.6l-0.6-0.6
	c-0.2-0.2-0.4-0.2-0.6,0c-0.2,0.2-0.2,0.4,0,0.6L75.9,74.5z"/>
<path class="st2" d="M78.9,74.6c0.1,0,0.2,0,0.3-0.1l0.5-0.5c0.2-0.2,0.2-0.4,0-0.6c-0.2-0.2-0.4-0.2-0.6,0l-0.5,0.5
	c-0.2,0.2-0.2,0.4,0,0.6C78.6,74.5,78.7,74.6,78.9,74.6z"/>
<path class="st2" d="M75.9,76.5l-0.5,0.5c-0.2,0.2-0.2,0.4,0,0.6c0.1,0.1,0.2,0.1,0.3,0.1c0.1,0,0.2,0,0.3-0.1l0.5-0.5
	c0.2-0.2,0.2-0.4,0-0.6C76.3,76.4,76,76.4,75.9,76.5z"/>
<path class="st2" d="M66.8,75.1h-0.8c-0.2,0-0.4,0.2-0.4,0.4c0,0.2,0.2,0.4,0.4,0.4h0.8c0.2,0,0.4-0.2,0.4-0.4
	C67.3,75.2,67.1,75.1,66.8,75.1z"/>
<path class="st2" d="M62.7,75.5c0-0.2-0.2-0.4-0.4-0.4h-0.8c-0.2,0-0.4,0.2-0.4,0.4c0,0.2,0.2,0.4,0.4,0.4h0.8
	C62.5,75.9,62.7,75.7,62.7,75.5z"/>
<path class="st2" d="M64.2,72.4c-0.2,0-0.4,0.2-0.4,0.4v0.8c0,0.2,0.2,0.4,0.4,0.4c0.2,0,0.4-0.2,0.4-0.4v-0.8
	C64.6,72.6,64.4,72.4,64.2,72.4z"/>
<path class="st2" d="M64.2,77c-0.2,0-0.4,0.2-0.4,0.4v0.8c0,0.2,0.2,0.4,0.4,0.4c0.2,0,0.4-0.2,0.4-0.4v-0.8
	C64.6,77.1,64.4,77,64.2,77z"/>
<path class="st2" d="M65.8,76.5c-0.2-0.2-0.4-0.2-0.6,0c-0.2,0.2-0.2,0.4,0,0.6l0.6,0.6c0.1,0.1,0.2,0.1,0.3,0.1
	c0.1,0,0.2,0,0.3-0.1c0.2-0.2,0.2-0.4,0-0.6L65.8,76.5z"/>
<path class="st2" d="M62.6,73.3c-0.2-0.2-0.4-0.2-0.6,0c-0.2,0.2-0.2,0.4,0,0.6l0.6,0.6c0.1,0.1,0.2,0.1,0.3,0.1
	c0.1,0,0.2,0,0.3-0.1c0.2-0.2,0.2-0.4,0-0.6L62.6,73.3z"/>
<path class="st2" d="M65.5,74.6c0.1,0,0.2,0,0.3-0.1l0.5-0.5c0.2-0.2,0.2-0.4,0-0.6c-0.2-0.2-0.4-0.2-0.6,0l-0.5,0.5
	c-0.2,0.2-0.2,0.4,0,0.6C65.3,74.5,65.4,74.6,65.5,74.6z"/>
<path class="st2" d="M62.5,76.5L62,77.1c-0.2,0.2-0.2,0.4,0,0.6c0.1,0.1,0.2,0.1,0.3,0.1c0.1,0,0.2,0,0.3-0.1l0.5-0.5
	c0.2-0.2,0.2-0.4,0-0.6C63,76.4,62.7,76.4,62.5,76.5z"/>
</svg>
