<?xml version="1.0" encoding="utf-8"?>
<!-- Generator: Adobe Illustrator 21.0.0, SVG Export Plug-In . SVG Version: 6.00 Build 0)  -->
<svg version="1.1" xmlns="http://www.w3.org/2000/svg" xmlns:xlink="http://www.w3.org/1999/xlink" x="0px" y="0px"
	 viewBox="0 0 138 155" style="enable-background:new 0 0 138 155;" xml:space="preserve">
<style type="text/css">
	.st0{fill:#854F28;}
</style>
<g id="Layer_2">
</g>
<g id="Layer_1">
	<g>
		<path class="st0" d="M38.1,127.1c-0.2,0-0.4-0.1-0.5-0.2l-5.6-5.3v4.8c0,0.2-0.1,0.4-0.2,0.5c-0.1,0.1-0.3,0.2-0.5,0.2
			c-0.2,0-0.4-0.1-0.5-0.2c-0.1-0.1-0.2-0.3-0.2-0.5v-11.6c0-0.2,0.1-0.4,0.2-0.5c0.1-0.1,0.3-0.2,0.5-0.2c0.2,0,0.4,0.1,0.5,0.2
			c0.1,0.1,0.2,0.3,0.2,0.5v4.8l5.6-5.3c0.1-0.1,0.3-0.2,0.5-0.2c0.2,0,0.4,0.1,0.5,0.2c0.1,0.2,0.2,0.3,0.2,0.5
			c0,0.2-0.1,0.4-0.2,0.5l-5.5,5.2l5.5,5.3c0.1,0.1,0.2,0.3,0.2,0.5c0,0.2-0.1,0.4-0.2,0.5C38.5,127.1,38.4,127.1,38.1,127.1z"/>
		<path class="st0" d="M44.5,127.1c-0.6,0-1.1-0.1-1.7-0.3s-1-0.5-1.4-0.9c-0.4-0.4-0.7-0.8-0.9-1.3c-0.2-0.5-0.3-1.1-0.3-1.6
			c0-0.6,0.1-1.1,0.3-1.6c0.2-0.5,0.5-1,0.9-1.4c0.4-0.4,0.8-0.7,1.4-0.9s1.1-0.3,1.7-0.3s1.1,0.1,1.7,0.3c0.5,0.2,1,0.5,1.4,0.9
			c0.4,0.4,0.7,0.8,0.9,1.4s0.3,1.1,0.3,1.6c0,0.6-0.1,1.1-0.3,1.6c-0.2,0.5-0.5,1-0.9,1.3c-0.4,0.4-0.8,0.7-1.4,0.9
			C45.6,127,45,127.1,44.5,127.1z M44.5,120.1c-0.4,0-0.8,0.1-1.1,0.2c-0.3,0.1-0.6,0.3-0.9,0.6c-0.3,0.3-0.5,0.5-0.6,0.9
			c-0.1,0.3-0.2,0.7-0.2,1.1s0.1,0.7,0.2,1.1c0.1,0.3,0.4,0.6,0.6,0.9s0.6,0.5,0.9,0.6c0.3,0.1,0.7,0.2,1.1,0.2
			c0.4,0,0.7-0.1,1.1-0.2s0.6-0.3,0.9-0.6c0.3-0.3,0.5-0.5,0.6-0.9c0.1-0.3,0.2-0.7,0.2-1.1s-0.1-0.7-0.2-1.1s-0.3-0.6-0.6-0.9
			c-0.2-0.3-0.5-0.5-0.9-0.6S44.8,120.1,44.5,120.1z"/>
		<path class="st0" d="M52.2,119.1c0.5-0.3,1.1-0.5,1.7-0.5c0.5,0,0.9,0.1,1.3,0.3c0.4,0.2,0.8,0.5,1,0.8c0.3-0.3,0.6-0.6,1-0.8
			c0.4-0.2,0.8-0.3,1.3-0.3c0.4,0,0.8,0.1,1.2,0.2c0.4,0.2,0.7,0.4,1,0.7c0.3,0.3,0.5,0.6,0.7,1c0.2,0.4,0.2,0.8,0.2,1.2v4.7
			c0,0.2-0.1,0.4-0.2,0.5c-0.1,0.1-0.3,0.2-0.5,0.2c-0.2,0-0.4-0.1-0.5-0.2c-0.1-0.1-0.2-0.3-0.2-0.5v-4.7c0-0.2,0-0.4-0.1-0.6
			c-0.1-0.2-0.2-0.4-0.3-0.5s-0.3-0.3-0.5-0.3c-0.2-0.1-0.4-0.1-0.6-0.1s-0.4,0-0.6,0.1c-0.2,0.1-0.4,0.2-0.5,0.3s-0.3,0.3-0.3,0.5
			c-0.1,0.2-0.1,0.4-0.1,0.6v4.7c0,0.2-0.1,0.4-0.2,0.5c-0.1,0.1-0.3,0.2-0.5,0.2c-0.2,0-0.4-0.1-0.5-0.2c-0.1-0.1-0.2-0.3-0.2-0.5
			v-4.7c0-0.2,0-0.4-0.1-0.6c-0.1-0.2-0.2-0.4-0.3-0.5s-0.3-0.3-0.5-0.3c-0.2-0.1-0.4-0.1-0.6-0.1s-0.4,0-0.6,0.1
			c-0.2,0.1-0.4,0.2-0.5,0.3c-0.1,0.1-0.3,0.3-0.3,0.5c-0.1,0.2-0.1,0.4-0.1,0.6c0,0,0,0.1,0,0.1v4.6c0,0.2-0.1,0.4-0.2,0.5
			c-0.1,0.1-0.3,0.2-0.5,0.2c-0.2,0-0.4-0.1-0.5-0.2c-0.1-0.1-0.2-0.3-0.2-0.5v-7.1c0-0.2,0.1-0.4,0.2-0.5c0.1-0.1,0.3-0.2,0.5-0.2
			C51.9,118.5,52.1,118.7,52.2,119.1z"/>
		<path class="st0" d="M67,127.1c-0.5,0-0.9-0.1-1.3-0.3c-0.4-0.2-0.8-0.4-1.1-0.7s-0.5-0.6-0.7-1c-0.2-0.4-0.3-0.8-0.3-1.3v-4.4
			c0-0.2,0.1-0.4,0.2-0.5c0.1-0.1,0.3-0.2,0.5-0.2c0.2,0,0.4,0.1,0.5,0.2c0.1,0.1,0.2,0.3,0.2,0.5v4.4c0,0.3,0,0.5,0.1,0.7
			c0.1,0.2,0.2,0.4,0.4,0.6s0.4,0.3,0.6,0.4c0.2,0.1,0.5,0.1,0.7,0.1c0.2,0,0.5,0,0.7-0.1c0.2-0.1,0.4-0.2,0.6-0.4
			c0.2-0.2,0.3-0.4,0.4-0.6c0.1-0.2,0.1-0.5,0.1-0.7v-4.4c0-0.2,0.1-0.4,0.2-0.5c0.1-0.1,0.3-0.2,0.5-0.2c0.2,0,0.4,0.1,0.5,0.2
			c0.1,0.1,0.2,0.3,0.2,0.5v4.4c0,0.5-0.1,0.9-0.3,1.3c-0.2,0.4-0.4,0.8-0.7,1s-0.6,0.5-1,0.7C67.9,127,67.4,127.1,67,127.1z"/>
		<path class="st0" d="M74.1,119.1c0.5-0.3,1.1-0.5,1.7-0.5c0.4,0,0.8,0.1,1.2,0.2c0.4,0.2,0.7,0.4,1,0.7s0.5,0.6,0.7,1
			c0.2,0.4,0.2,0.8,0.2,1.2v4.7c0,0.2-0.1,0.4-0.2,0.5c-0.1,0.1-0.3,0.2-0.5,0.2c-0.2,0-0.4-0.1-0.5-0.2c-0.1-0.1-0.2-0.3-0.2-0.5
			v-4.7c0-0.2,0-0.4-0.1-0.6c-0.1-0.2-0.2-0.4-0.3-0.5s-0.3-0.3-0.5-0.3c-0.2-0.1-0.4-0.1-0.6-0.1s-0.4,0-0.6,0.1
			c-0.2,0.1-0.4,0.2-0.5,0.3c-0.1,0.1-0.3,0.3-0.3,0.5c-0.1,0.2-0.1,0.4-0.1,0.6c0,0,0,0.1,0,0.1v4.6c0,0.2-0.1,0.4-0.2,0.5
			c-0.1,0.1-0.3,0.2-0.5,0.2c-0.2,0-0.4-0.1-0.5-0.2c-0.1-0.1-0.2-0.3-0.2-0.5v-7.1c0-0.2,0.1-0.4,0.2-0.5s0.3-0.2,0.5-0.2
			C73.8,118.5,74.1,118.7,74.1,119.1z"/>
		<path class="st0" d="M82.3,117.5c-0.3,0-0.5-0.1-0.7-0.3c-0.2-0.2-0.3-0.4-0.3-0.7c0-0.3,0.1-0.5,0.3-0.7c0.2-0.2,0.4-0.3,0.7-0.3
			c0.3,0,0.5,0.1,0.7,0.3c0.2,0.2,0.3,0.4,0.3,0.7c0,0.3-0.1,0.5-0.3,0.7C82.8,117.4,82.5,117.5,82.3,117.5z M82.3,127.1
			c-0.2,0-0.4-0.1-0.5-0.2c-0.1-0.1-0.2-0.3-0.2-0.5v-7c0-0.2,0.1-0.4,0.2-0.5s0.3-0.2,0.5-0.2s0.4,0.1,0.5,0.2s0.2,0.3,0.2,0.5v7
			c0,0.2-0.1,0.4-0.2,0.5C82.6,127.1,82.5,127.1,82.3,127.1z"/>
		<path class="st0" d="M89.9,120.1h-1.3v6.3c0,0.2-0.1,0.4-0.2,0.5c-0.1,0.1-0.3,0.2-0.5,0.2c-0.2,0-0.4-0.1-0.5-0.2
			c-0.1-0.1-0.2-0.3-0.2-0.5v-6.3h-1.4c-0.2,0-0.4-0.1-0.5-0.2c-0.1-0.1-0.2-0.3-0.2-0.5c0-0.2,0.1-0.4,0.2-0.5
			c0.1-0.1,0.3-0.2,0.5-0.2H87v-2.4c0-0.2,0.1-0.4,0.2-0.5c0.1-0.1,0.3-0.2,0.5-0.2c0.2,0,0.4,0.1,0.5,0.2c0.1,0.1,0.2,0.3,0.2,0.5
			v2.4h1.3c0.2,0,0.4,0.1,0.5,0.2s0.2,0.3,0.2,0.5c0,0.2-0.1,0.4-0.2,0.5S90.1,120.1,89.9,120.1z"/>
		<path class="st0" d="M99.4,127.1c-0.2,0-0.4-0.1-0.5-0.2c-0.1-0.1-0.2-0.3-0.2-0.5v-0.3c-0.4,0.3-0.8,0.6-1.3,0.8s-1,0.3-1.5,0.3
			c-0.6,0-1.1-0.1-1.7-0.3s-1-0.5-1.4-0.9c-0.4-0.4-0.7-0.8-0.9-1.3c-0.2-0.5-0.3-1.1-0.3-1.6c0-0.6,0.1-1.1,0.3-1.6
			c0.2-0.5,0.5-1,0.9-1.4c0.4-0.4,0.8-0.7,1.4-0.9s1.1-0.3,1.7-0.3c0.5,0,1,0.1,1.5,0.3c0.5,0.2,0.9,0.4,1.3,0.8v-0.3
			c0-0.2,0.1-0.4,0.2-0.5c0.1-0.1,0.3-0.2,0.5-0.2c0.2,0,0.4,0.1,0.5,0.2c0.1,0.1,0.2,0.3,0.2,0.5v7c0,0.2-0.1,0.4-0.2,0.5
			C99.8,127.1,99.6,127.1,99.4,127.1z M95.9,120.1c-0.4,0-0.8,0.1-1.1,0.2s-0.6,0.3-0.9,0.6c-0.3,0.3-0.5,0.5-0.6,0.9
			c-0.1,0.3-0.2,0.7-0.2,1.1s0.1,0.7,0.2,1.1c0.2,0.3,0.4,0.6,0.6,0.9s0.5,0.5,0.9,0.6s0.7,0.2,1.1,0.2c0.4,0,0.7-0.1,1.1-0.2
			c0.3-0.1,0.6-0.3,0.9-0.6c0.3-0.3,0.5-0.5,0.6-0.9c0.1-0.3,0.2-0.7,0.2-1.1s-0.1-0.7-0.2-1.1c-0.1-0.3-0.3-0.6-0.6-0.9
			c-0.3-0.3-0.6-0.5-0.9-0.6C96.6,120.2,96.3,120.1,95.9,120.1z"/>
		<path class="st0" d="M105,127.1c-0.3,0-0.7-0.1-1-0.2c-0.3-0.1-0.6-0.3-0.9-0.5s-0.5-0.5-0.7-0.8c-0.2-0.3-0.3-0.7-0.3-1
			c0-0.2,0.1-0.4,0.2-0.5c0.1-0.1,0.3-0.2,0.5-0.2c0.2,0,0.4,0.1,0.5,0.2c0.1,0.1,0.2,0.3,0.2,0.5c0,0.3,0.1,0.6,0.4,0.7
			c0.3,0.2,0.6,0.3,0.9,0.3c0.4,0,0.7-0.1,0.9-0.2c0.2-0.2,0.3-0.4,0.3-0.8c0-0.2,0-0.4-0.1-0.5c-0.1-0.1-0.2-0.2-0.4-0.3
			c-0.1-0.1-0.2-0.1-0.3-0.1c-0.1,0-0.2-0.1-0.3-0.1c-0.1,0-0.2-0.1-0.3-0.1c-0.1,0-0.2-0.1-0.4-0.1c-0.2-0.1-0.5-0.2-0.7-0.3
			c-0.3-0.1-0.5-0.2-0.7-0.4s-0.4-0.4-0.5-0.6c-0.1-0.3-0.2-0.6-0.2-1c0-0.4,0.1-0.7,0.2-1c0.1-0.3,0.3-0.5,0.5-0.8s0.5-0.4,0.8-0.5
			s0.6-0.2,1-0.2s0.6,0.1,1,0.2c0.3,0.1,0.6,0.3,0.8,0.5s0.4,0.5,0.5,0.8c0.1,0.3,0.2,0.6,0.2,1c0,0.2-0.1,0.4-0.2,0.5
			c-0.1,0.1-0.3,0.2-0.5,0.2c-0.2,0-0.4-0.1-0.5-0.2c-0.1-0.1-0.2-0.3-0.2-0.5c0-0.3-0.1-0.5-0.3-0.7c-0.2-0.2-0.4-0.2-0.7-0.2
			c-0.3,0-0.5,0.1-0.7,0.2s-0.3,0.4-0.3,0.7c0,0.3,0.2,0.5,0.5,0.6c0.2,0.1,0.4,0.2,0.6,0.2c0.1,0.1,0.2,0.1,0.3,0.1
			c0.1,0,0.2,0.1,0.4,0.1c0.2,0.1,0.5,0.2,0.7,0.3c0.3,0.1,0.5,0.3,0.7,0.5c0.2,0.2,0.4,0.4,0.5,0.7s0.2,0.6,0.2,1
			c0,0.4-0.1,0.7-0.2,1.1s-0.3,0.6-0.6,0.8c-0.2,0.2-0.5,0.4-0.9,0.5C105.7,127.1,105.4,127.1,105,127.1z"/>
	</g>
	<g>
		<g>
			<path class="st0" d="M80.6,50.9L80.6,50.9c3.1,0,5.6-2.5,5.6-5.6c0-3.1-2.5-5.6-5.6-5.6c-3.1,0-5.6,2.5-5.6,5.6
				C75,48.4,77.5,50.9,80.6,50.9z M76.8,45.3c0-2.1,1.7-3.7,3.7-3.7c2.1,0,3.7,1.7,3.7,3.7c0,2.1-1.7,3.7-3.7,3.7
				C78.5,49,76.9,47.4,76.8,45.3z"/>
			<path class="st0" d="M73.4,54.4c0.2,0.1,0.4,0.2,0.6,0.2c0.3,0,0.5-0.1,0.7-0.3c0.6-0.7,1.6-1.2,2.5-1.2h6.8c0.9,0,1.8,0.4,2.4,1
				c0.2,0.2,0.4,0.3,0.7,0.3c0,0,0,0,0,0c0.2,0,0.5-0.1,0.7-0.3c0.3-0.3,0.4-0.8,0.1-1.2v0l-0.1-0.1c-1-1-2.3-1.6-3.7-1.6
				c0,0,0,0,0,0h-6.8c0,0,0,0,0,0c-1.5,0-3,0.7-4,1.8c-0.2,0.2-0.2,0.4-0.2,0.7C73.1,54,73.2,54.2,73.4,54.4z"/>
			<path class="st0" d="M53.5,54.4C53.5,54.4,53.5,54.4,53.5,54.4c0.3,0,0.5-0.1,0.7-0.3l0,0c0.6-0.6,1.5-1,2.4-1h6.8
				c1,0,1.9,0.4,2.5,1.2c0.2,0.2,0.4,0.3,0.7,0.3c0.2,0,0.4-0.1,0.6-0.2c0.4-0.3,0.4-0.9,0.1-1.3c-1-1.2-2.4-1.8-4-1.8h-6.8
				c-1.4,0-2.7,0.6-3.7,1.6c-0.2,0.2-0.3,0.4-0.3,0.7c0,0.3,0.1,0.5,0.3,0.7C53,54.3,53.2,54.4,53.5,54.4z"/>
			<path class="st0" d="M60,50.9L60,50.9c3.1,0,5.6-2.5,5.6-5.6c0-3.1-2.5-5.6-5.6-5.6c-3.1,0-5.6,2.5-5.6,5.6
				C54.4,48.4,56.9,50.9,60,50.9z M56.3,45.3c0-2.1,1.7-3.7,3.7-3.7c2.1,0,3.7,1.7,3.7,3.7c0,2.1-1.7,3.7-3.7,3.7
				C58,49,56.3,47.4,56.3,45.3z"/>
			<path class="st0" d="M62,64.4L62,64.4c0,4.6,3.7,8.3,8.3,8.3c4.6,0,8.3-3.7,8.3-8.3c0-4.6-3.7-8.3-8.3-8.3
				C65.7,56,62,59.8,62,64.4z M70.3,57.9c1.7,0,3.3,0.7,4.5,1.9c1.2,1.2,1.9,2.8,1.9,4.5c0,1.7-0.7,3.3-1.9,4.5
				c-1.2,1.2-2.8,1.9-4.5,1.9c-1.7,0-3.3-0.7-4.5-1.9c-1.2-1.2-1.9-2.8-1.9-4.5c0-1.7,0.7-3.3,1.9-4.5C67,58.6,68.6,57.9,70.3,57.9z
				"/>
			<path class="st0" d="M93.1,69.1h-7.7c-2.3,0-4.4,1.4-5.3,3.5c-0.1,0.2-0.1,0.5,0,0.7c0.1,0.2,0.3,0.4,0.5,0.5
				c0.5,0.2,1,0,1.2-0.5c0.6-1.4,2-2.4,3.6-2.4c0,0,0,0,0,0h7.7c2.1,0,3.9,1.8,3.9,3.9v2.4c0,0.5,0.4,0.9,0.9,0.9
				c0.5,0,0.9-0.4,0.9-0.9v-2.4C98.9,71.7,96.3,69.1,93.1,69.1z"/>
			<path class="st0" d="M83,62.3L83,62.3c0,3.4,2.8,6.2,6.2,6.2c3.4,0,6.2-2.8,6.2-6.2c0-3.4-2.8-6.2-6.2-6.2
				C85.8,56,83,58.8,83,62.3z M84.9,62.3c0-2.4,2-4.3,4.3-4.3c2.4,0,4.3,2,4.3,4.3c0,2.4-2,4.3-4.3,4.3
				C86.8,66.6,84.9,64.7,84.9,62.3z"/>
			<path class="st0" d="M58.8,73.3L58.8,73.3c0.2,0.5,0.8,0.7,1.2,0.5c0.5-0.2,0.7-0.8,0.5-1.2c-0.9-2.1-3-3.5-5.3-3.5h-7.7
				c-3.2,0-5.8,2.6-5.8,5.8v2.4c0,0.5,0.4,0.9,0.9,0.9c0.5,0,0.9-0.4,0.9-0.9v-2.4c0-2.1,1.8-3.9,3.9-3.9h7.7c0,0,0,0,0,0
				C56.8,71,58.2,71.9,58.8,73.3z"/>
			<path class="st0" d="M51.4,68.5L51.4,68.5c3.4,0,6.2-2.8,6.2-6.2c0-3.4-2.8-6.2-6.2-6.2c-3.4,0-6.2,2.8-6.2,6.2
				C45.2,65.7,48,68.5,51.4,68.5z M47.1,62.3c0-2.4,2-4.3,4.3-4.3c2.4,0,4.3,2,4.3,4.3c0,2.4-2,4.3-4.3,4.3
				C49,66.6,47.1,64.7,47.1,62.3z"/>
			<path class="st0" d="M74.8,73.9h-8.8c-4.8,0-8.7,3.9-8.7,8.7v3.5c0,0.5,0.4,0.9,0.9,0.9c0.5,0,0.9-0.4,0.9-0.9v-3.5
				c0-1.8,0.7-3.5,2-4.8c1.3-1.3,3-2,4.8-2h8.8c1.8,0,3.5,0.7,4.8,2c1.3,1.3,2,3,2,4.8v3.5c0,0.5,0.4,0.9,0.9,0.9
				c0.5,0,0.9-0.4,0.9-0.9v-3.5C83.5,77.8,79.6,73.9,74.8,73.9z"/>
		</g>
	</g>
</g>
</svg>
