<?xml version="1.0" encoding="utf-8"?>
<!-- Generator: Adobe Illustrator 21.0.0, SVG Export Plug-In . SVG Version: 6.00 Build 0)  -->
<svg version="1.1" id="Layer_1" xmlns="http://www.w3.org/2000/svg" xmlns:xlink="http://www.w3.org/1999/xlink" x="0px" y="0px"
	 viewBox="0 0 138 155" style="enable-background:new 0 0 138 155;" xml:space="preserve">
<style type="text/css">
	.st0{fill:#854F28;}
	.st1{enable-background:new    ;}
</style>
<g>
	<path class="st0" d="M64.1,38.1c-2.3-3.7-7.2-4.8-10.9-2.5c-1,0.6-1.8,1.5-2.5,2.5c-1.7,2.5-2.7,5.4-2.6,8.5c0,2.1,0.4,4.3,1.3,6.2
		c0.3,0.6,0.6,1.2,1,1.7l1.5,2.1c0.1,0.2,0.2,0.3,0.3,0.5c0.8,0.9,1.3,2.1,1.5,3.3c0,1.4-0.7,29.3-0.7,30.5
		c-0.1,0.4,0.2,0.9,0.5,1.1c2.4,1.6,5.5,1.6,7.9,0c0.4-0.2,0.6-0.7,0.5-1.1c-0.1-1.1-0.7-29.1-0.7-30.5c0.1-1.3,0.7-2.4,1.5-3.4
		c0.1-0.1,0.2-0.3,0.3-0.4l1.5-2.1c0.4-0.5,0.7-1.1,1-1.7c0.9-2,1.3-4.1,1.3-6.2C66.8,43.5,65.9,40.5,64.1,38.1z M52.9,90.7
		C52.9,90.7,53,90.7,52.9,90.7L52.9,90.7z M63.3,51.7c-0.2,0.5-0.5,0.9-0.8,1.3L61,55.1l0,0c-0.1,0.1-0.2,0.3-0.3,0.4
		c-1.1,1.3-1.8,3-1.9,4.7c0,0.2,0.5,25,0.7,30c-1.4,0.7-2.9,0.7-4.3,0c0.2-5,0.7-29.7,0.7-30c-0.1-1.7-0.8-3.4-1.9-4.7
		c-0.1-0.2-0.2-0.3-0.3-0.4l0,0L52.2,53c-0.3-0.4-0.6-0.9-0.8-1.3c-0.7-1.6-1.1-3.4-1.1-5.2c0-5.4,3.1-9.8,7-9.8s7,4.4,7,9.8
		C64.4,48.3,64.1,50.1,63.3,51.7z M88.2,34.9c-0.2-0.2-0.5-0.3-0.8-0.3H72c-0.3,0-0.6,0.1-0.8,0.3c-0.2,0.2-0.3,0.5-0.3,0.8
		c0,5.1,0,17.1,0,17.4c0,0.5,0.3,0.9,0.8,1c2.5,0.9,4.2,3.3,4.3,5.9c0,1.4-0.6,29.4-0.7,30.5c-0.1,0.4,0.2,0.9,0.5,1.1
		c2.4,1.6,5.5,1.6,7.9,0c0.4-0.2,0.6-0.7,0.5-1.1c-0.1-1.1-0.7-29.1-0.7-30.5c0.1-2.7,1.8-5,4.3-5.9c0.5-0.1,0.8-0.6,0.8-1
		c0-0.3,0-12.2,0-17.4C88.5,35.4,88.4,35.1,88.2,34.9z M75.2,90.7L75.2,90.7L75.2,90.7z M86.2,52.4c-3,1.4-5,4.5-5.1,7.9
		c0,0.2,0.5,25,0.7,29.9c-1.4,0.7-2.9,0.7-4.3,0c0.2-5,0.7-29.7,0.7-30c-0.1-3.4-2-6.4-5.1-7.9c0-2.6,0-10.8,0-15.3h2.7v6.8
		c0,0.6,0.5,1.2,1.1,1.2s1.2-0.5,1.2-1.1c0,0,0,0,0-0.1V37h3.2v12.2c0,0.6,0.5,1.2,1.1,1.2s1.2-0.5,1.2-1.1c0,0,0,0,0-0.1V37.1h2.7
		C86.2,41.6,86.2,49.8,86.2,52.4L86.2,52.4z M77,46.9c-0.6,0-1.2,0.5-1.2,1.2l0,0v1.2c0,0.6,0.5,1.2,1.2,1.2c0.6,0,1.2-0.5,1.2-1.2
		v-1.2C78.1,47.4,77.6,46.9,77,46.9L77,46.9L77,46.9z M54.7,49.3c-0.3-0.7-0.4-1.4-0.5-2.2c-0.1-0.6-0.6-1.1-1.3-1s-1.1,0.6-1,1.3
		c0.1,1,0.3,1.9,0.7,2.9c0.2,0.4,0.6,0.7,1.1,0.7c0.1,0,0.3,0,0.4-0.1C54.6,50.6,54.9,49.9,54.7,49.3z M57.4,38.6
		c-2,0-3.9,1.5-4.9,4c-0.2,0.6,0.1,1.3,0.6,1.5c0.1,0.1,0.3,0.1,0.4,0.1c0.5,0,0.9-0.3,1.1-0.7c0.6-1.6,1.7-2.5,2.7-2.5
		c0.6-0.2,1-0.9,0.8-1.5C58.1,39.1,57.8,38.8,57.4,38.6z"/>
</g>
<g class="st1">
	<path class="st0" d="M53,127.1c-0.2,0-0.4-0.1-0.5-0.2l-5.6-5.3v4.8c0,0.2-0.1,0.4-0.2,0.5c-0.1,0.1-0.3,0.2-0.5,0.2
		c-0.2,0-0.4-0.1-0.5-0.2c-0.1-0.1-0.2-0.3-0.2-0.5v-11.6c0-0.2,0.1-0.4,0.2-0.5c0.1-0.1,0.3-0.2,0.5-0.2c0.2,0,0.4,0.1,0.5,0.2
		c0.1,0.1,0.2,0.3,0.2,0.5v4.8l5.6-5.3c0.1-0.1,0.3-0.2,0.5-0.2c0.2,0,0.4,0.1,0.5,0.2c0.1,0.2,0.2,0.3,0.2,0.5s-0.1,0.4-0.2,0.5
		l-5.5,5.2l5.5,5.3c0.1,0.1,0.2,0.3,0.2,0.5c0,0.2-0.1,0.4-0.2,0.5C53.4,127.1,53.2,127.1,53,127.1z"/>
	<path class="st0" d="M58.7,127.1c-0.5,0-0.9-0.1-1.3-0.3c-0.4-0.2-0.8-0.4-1.1-0.7s-0.5-0.6-0.7-1c-0.2-0.4-0.3-0.8-0.3-1.3v-4.4
		c0-0.2,0.1-0.4,0.2-0.5c0.1-0.1,0.3-0.2,0.5-0.2c0.2,0,0.4,0.1,0.5,0.2c0.1,0.1,0.2,0.3,0.2,0.5v4.4c0,0.3,0,0.5,0.1,0.7
		c0.1,0.2,0.2,0.4,0.4,0.6s0.4,0.3,0.6,0.4c0.2,0.1,0.5,0.1,0.7,0.1c0.2,0,0.5,0,0.7-0.1s0.4-0.2,0.6-0.4s0.3-0.4,0.4-0.6
		c0.1-0.2,0.1-0.5,0.1-0.7v-4.4c0-0.2,0.1-0.4,0.2-0.5s0.3-0.2,0.5-0.2s0.4,0.1,0.5,0.2c0.1,0.1,0.2,0.3,0.2,0.5v4.4
		c0,0.5-0.1,0.9-0.3,1.3c-0.2,0.4-0.4,0.8-0.7,1s-0.6,0.5-1,0.7C59.6,127,59.1,127.1,58.7,127.1z"/>
	<path class="st0" d="M65.1,127.1c-0.2,0-0.4-0.1-0.5-0.2c-0.1-0.1-0.2-0.3-0.2-0.5v-11.6c0-0.2,0.1-0.4,0.2-0.5
		c0.1-0.1,0.3-0.2,0.5-0.2s0.4,0.1,0.5,0.2c0.1,0.1,0.2,0.3,0.2,0.5v11.6c0,0.2-0.1,0.4-0.2,0.5C65.5,127.1,65.3,127.1,65.1,127.1z"
		/>
	<path class="st0" d="M69.6,117.5c-0.3,0-0.5-0.1-0.7-0.3c-0.2-0.2-0.3-0.4-0.3-0.7c0-0.3,0.1-0.5,0.3-0.7c0.2-0.2,0.4-0.3,0.7-0.3
		c0.3,0,0.5,0.1,0.7,0.3c0.2,0.2,0.3,0.4,0.3,0.7c0,0.3-0.1,0.5-0.3,0.7C70.1,117.4,69.9,117.5,69.6,117.5z M69.6,127.1
		c-0.2,0-0.4-0.1-0.5-0.2c-0.1-0.1-0.2-0.3-0.2-0.5v-7c0-0.2,0.1-0.4,0.2-0.5c0.1-0.1,0.3-0.2,0.5-0.2c0.2,0,0.4,0.1,0.5,0.2
		c0.1,0.1,0.2,0.3,0.2,0.5v7c0,0.2-0.1,0.4-0.2,0.5C70,127.1,69.8,127.1,69.6,127.1z"/>
	<path class="st0" d="M74.8,119.1c0.5-0.3,1.1-0.5,1.7-0.5c0.4,0,0.8,0.1,1.2,0.2c0.4,0.2,0.7,0.4,1,0.7s0.5,0.6,0.7,1
		c0.2,0.4,0.2,0.8,0.2,1.2v4.7c0,0.2-0.1,0.4-0.2,0.5c-0.1,0.1-0.3,0.2-0.5,0.2c-0.2,0-0.4-0.1-0.5-0.2c-0.1-0.1-0.2-0.3-0.2-0.5
		v-4.7c0-0.2,0-0.4-0.1-0.6c-0.1-0.2-0.2-0.4-0.3-0.5c-0.2-0.1-0.3-0.3-0.5-0.3c-0.2-0.1-0.4-0.1-0.6-0.1s-0.4,0-0.6,0.1
		c-0.2,0.1-0.4,0.2-0.5,0.3c-0.1,0.1-0.3,0.3-0.3,0.5c-0.1,0.2-0.1,0.4-0.1,0.6c0,0,0,0.1,0,0.1v4.6c0,0.2-0.1,0.4-0.2,0.5
		c-0.1,0.1-0.3,0.2-0.5,0.2c-0.2,0-0.4-0.1-0.5-0.2c-0.1-0.1-0.2-0.3-0.2-0.5v-7.1c0-0.2,0.1-0.4,0.2-0.5s0.3-0.2,0.5-0.2
		C74.5,118.5,74.7,118.7,74.8,119.1z"/>
	<path class="st0" d="M89,123.3h-6.3c0,0.3,0.1,0.7,0.3,0.9c0.2,0.3,0.4,0.5,0.6,0.8c0.2,0.2,0.5,0.4,0.8,0.5c0.3,0.1,0.7,0.2,1,0.2
		c0.2,0,0.4,0,0.6,0c0.2,0,0.3-0.1,0.5-0.2c0.1-0.1,0.3-0.2,0.4-0.3c0.2-0.1,0.3-0.2,0.5-0.4c0.1-0.1,0.1-0.1,0.2-0.1
		c0.1,0,0.2-0.1,0.3-0.1c0.2,0,0.4,0.1,0.5,0.2c0.1,0.1,0.2,0.3,0.2,0.5c0,0.1,0,0.2-0.1,0.3c0,0.1-0.1,0.1-0.1,0.2
		c-0.2,0.2-0.4,0.4-0.6,0.5c-0.2,0.2-0.5,0.3-0.8,0.4c-0.3,0.1-0.5,0.2-0.8,0.2s-0.6,0.1-0.8,0.1c-0.6,0-1.1-0.1-1.7-0.3
		s-1-0.5-1.4-0.9c-0.4-0.4-0.7-0.8-0.9-1.3c-0.2-0.5-0.3-1.1-0.3-1.6c0-0.6,0.1-1.1,0.3-1.6s0.5-1,0.9-1.4c0.4-0.4,0.8-0.7,1.4-0.9
		s1.1-0.3,1.7-0.3c0.6,0,1.1,0.1,1.6,0.3s0.9,0.5,1.3,0.8c0.4,0.3,0.7,0.8,0.9,1.2s0.4,1,0.4,1.6c0,0.2-0.1,0.4-0.2,0.5
		C89.4,123.2,89.2,123.3,89,123.3z M85.5,120.1c-0.6,0-1.1,0.2-1.6,0.5s-0.8,0.7-1,1.2h5.2c-0.2-0.5-0.6-0.9-1-1.2
		C86.6,120.3,86,120.1,85.5,120.1z"/>
	<path class="st0" d="M93.2,119.1c0.2-0.2,0.4-0.3,0.6-0.4c0.2-0.1,0.4-0.1,0.7-0.1c0.5,0,1,0.1,1.3,0.4s0.6,0.6,0.8,1.1
		c0,0.1,0.1,0.2,0,0.3c0,0.1,0,0.2-0.1,0.3c-0.1,0.1-0.1,0.2-0.2,0.2c-0.1,0.1-0.2,0.1-0.4,0.1c-0.1,0-0.2,0-0.3-0.1
		c-0.1-0.1-0.2-0.1-0.2-0.2c-0.1-0.1-0.1-0.1-0.1-0.2c0-0.1-0.1-0.1-0.1-0.2c-0.1-0.1-0.2-0.2-0.3-0.3c-0.1-0.1-0.3-0.1-0.5-0.1
		c-0.1,0-0.3,0.1-0.4,0.1c-0.1,0.1-0.2,0.2-0.3,0.3s-0.2,0.2-0.2,0.4c-0.1,0.1-0.1,0.3-0.1,0.4v5.1c0,0.2-0.1,0.4-0.2,0.5
		c-0.1,0.1-0.3,0.2-0.5,0.2c-0.2,0-0.4-0.1-0.5-0.2c-0.1-0.1-0.2-0.3-0.2-0.5v-7c0-0.2,0.1-0.4,0.2-0.5c0.1-0.1,0.3-0.2,0.5-0.2
		c0.2,0,0.3,0,0.4,0.1C93,118.9,93.1,119,93.2,119.1z"/>
</g>
</svg>
