<?xml version="1.0" encoding="utf-8"?>
<!-- Generator: Adobe Illustrator 21.0.0, SVG Export Plug-In . SVG Version: 6.00 Build 0)  -->
<svg version="1.1" id="Layer_1" xmlns="http://www.w3.org/2000/svg" xmlns:xlink="http://www.w3.org/1999/xlink" x="0px" y="0px"
	 viewBox="0 0 101.8 118.9" style="enable-background:new 0 0 101.8 118.9;" xml:space="preserve">
<style type="text/css">
	.st0{opacity:0.14;fill:#231F20;enable-background:new    ;}
	.st1{fill:#8D5630;}
	.st2{fill:#FFFFFF;}
</style>
<title>Marker Cluster</title>
<ellipse class="st0" cx="51.1" cy="114.7" rx="19.8" ry="4.2"/>
<path class="st1" d="M86.6,87.2c20-19.7,20.3-51.9,0.6-72s-51.9-20.3-72-0.6s-20.3,51.9-0.6,72c0.1,0.1,0.2,0.2,0.3,0.3
	c5,5,10.9,8.8,17.4,11.4l14.5,14.5c2.5,2.5,6.5,2.5,9,0l0,0l14.8-14.9C76.6,95.4,82,91.8,86.6,87.2z"/>
<path class="st2" d="M50.6,75.1c-1.6,0-3.3-0.3-4.8-1c-2.9-1.2-5.3-3.6-6.5-6.5c-0.7-1.5-1-3.1-1-4.8c0-3.9,1.8-7.5,4.9-9.8
	c-1.5-1-2.7-2.4-3.6-4c-0.9-1.7-1.4-3.5-1.3-5.4c0-1.6,0.3-3.3,1-4.8c1.3-2.9,3.6-5.2,6.5-6.5c1.5-0.7,3.1-1,4.8-1
	c1.6,0,3.3,0.3,4.8,1c1.5,0.6,2.8,1.5,3.9,2.6c1.1,1.1,2,2.4,2.6,3.9c0.7,1.5,1,3.1,1,4.8c0,1.9-0.4,3.8-1.4,5.4
	c-0.9,1.6-2.1,2.9-3.6,4c3.1,2.3,5,5.9,4.9,9.8c0,1.6-0.3,3.3-1,4.8c-1.3,2.9-3.6,5.2-6.5,6.5C53.9,74.8,52.3,75.1,50.6,75.1z
	 M50.6,36.4c-1,0-1.9,0.2-2.8,0.6c-0.9,0.4-1.7,0.9-2.3,1.6c-0.7,0.7-1.2,1.5-1.6,2.3c-0.4,0.9-0.6,1.9-0.6,2.8
	c-0.1,2.9,1.7,5.5,4.5,6.5c0.9,0.3,1.9,0.5,2.9,0.4c1,0,1.9-0.1,2.8-0.4c2.7-1,4.5-3.6,4.5-6.5c0-1-0.2-1.9-0.6-2.8
	c-0.4-0.9-0.9-1.7-1.6-2.3c-0.7-0.7-1.5-1.2-2.3-1.6C52.5,36.6,51.6,36.4,50.6,36.4z M50.7,55.6h-0.2c-1,0-2,0.1-2.9,0.5
	s-1.7,0.9-2.3,1.6c-0.7,0.7-1.2,1.5-1.5,2.4c-0.4,0.9-0.6,1.9-0.5,2.8c0,1,0.2,1.9,0.6,2.8c0.4,0.9,0.9,1.7,1.6,2.3
	c0.7,0.7,1.5,1.2,2.3,1.6c0.9,0.4,1.9,0.6,2.9,0.6s1.9-0.2,2.8-0.6c1.8-0.8,3.1-2.1,3.9-3.9c0.4-0.9,0.6-1.8,0.6-2.8s-0.2-2-0.6-2.9
	c-0.4-0.9-0.9-1.7-1.6-2.4c-0.6-0.7-1.4-1.2-2.3-1.6C52.6,55.7,51.7,55.5,50.7,55.6L50.7,55.6z"/>
</svg>
