<?xml version="1.0" encoding="utf-8"?>
<!-- Generator: Adobe Illustrator 21.0.0, SVG Export Plug-In . SVG Version: 6.00 Build 0)  -->
<svg version="1.1" id="Layer_1" xmlns="http://www.w3.org/2000/svg" xmlns:xlink="http://www.w3.org/1999/xlink" x="0px" y="0px"
	 viewBox="0 0 138 155" style="enable-background:new 0 0 138 155;" xml:space="preserve">
<style type="text/css">
	.st0{fill:#854F28;}
	.st1{enable-background:new    ;}
</style>
<path class="st0" d="M96,63.7h-3.3v-4.4c0-0.5-0.4-0.9-0.9-0.9h-5.3V54c0-0.5-0.4-0.9-0.9-0.9h-6.2c-0.5,0-0.9,0.4-0.9,0.9v9.8h-21
	V54c0-0.5-0.4-0.9-0.9-0.9h-6.2c-0.5,0-0.9,0.4-0.9,0.9v4.4H44c-0.5,0-0.9,0.4-0.9,0.9v4.4H40c-0.5,0-0.9,0.4-0.9,0.9v6.5
	c0,0.5,0.4,0.9,0.9,0.9h3.1v4.6c0,0.5,0.4,0.9,0.9,0.9h5.3v4.4c0,0.5,0.4,0.9,0.9,0.9h6.2c0.5,0,0.9-0.4,0.9-0.9v-10h21v10
	c0,0.5,0.4,0.9,0.9,0.9h6.2c0.5,0,0.9-0.4,0.9-0.9v-4.4h5.3c0.5,0,0.9-0.4,0.9-0.9V72h3.3c0.5,0,0.9-0.4,0.9-0.9v-6.5
	C97,64.2,96.6,63.7,96,63.7z M43.1,70.2h-2.2v-4.6h2.2V70.2L43.1,70.2z M49.3,75.8h-4.4V60.3h4.4V75.8L49.3,75.8z M55.5,81.1h-4.4
	V54.9h4.4V81.1L55.5,81.1z M78.4,70.2h-21v-4.6h21V70.2z M84.7,81.1h-4.4V54.9h4.4V81.1L84.7,81.1z M90.9,75.8h-4.4V60.3h4.4V75.8z
	 M95.1,70.2h-2.3v-4.6h2.3V70.2z"/>
<g class="st1">
	<path class="st0" d="M37.4,127.1c-0.9,0-1.8-0.2-2.6-0.5c-0.8-0.3-1.5-0.8-2.1-1.4s-1.1-1.3-1.4-2.1c-0.3-0.8-0.5-1.6-0.5-2.5
		c0-0.9,0.2-1.7,0.5-2.5c0.3-0.8,0.8-1.5,1.4-2.1s1.3-1.1,2.1-1.4c0.8-0.3,1.6-0.5,2.6-0.5c0.9,0,1.7,0.2,2.5,0.5
		c0.8,0.3,1.5,0.8,2.1,1.4c0.6,0.6,1.1,1.3,1.4,2.1c0.3,0.8,0.5,1.6,0.5,2.5c0,0.9-0.2,1.7-0.5,2.5c-0.3,0.8-0.8,1.5-1.4,2.1
		c-0.6,0.6-1.3,1.1-2.1,1.4C39.2,127,38.3,127.1,37.4,127.1z M37.4,115.6c-0.7,0-1.4,0.1-2,0.4c-0.6,0.3-1.2,0.6-1.6,1.1
		c-0.5,0.5-0.8,1-1.1,1.6c-0.3,0.6-0.4,1.3-0.4,2c0,0.7,0.1,1.3,0.4,2s0.6,1.2,1.1,1.6c0.5,0.5,1,0.8,1.6,1.1c0.6,0.3,1.3,0.4,2,0.4
		c0.7,0,1.4-0.1,2-0.4c0.6-0.3,1.2-0.6,1.6-1.1c0.5-0.5,0.8-1,1.1-1.6s0.4-1.3,0.4-2c0-0.7-0.1-1.3-0.4-2c-0.3-0.6-0.6-1.2-1.1-1.6
		s-1-0.8-1.6-1.1C38.8,115.7,38.1,115.6,37.4,115.6z"/>
	<path class="st0" d="M47.1,127.1c-0.2,0-0.4-0.1-0.5-0.2c-0.1-0.1-0.2-0.3-0.2-0.5v-11.6c0-0.2,0.1-0.4,0.2-0.5
		c0.1-0.1,0.3-0.2,0.5-0.2s0.4,0.1,0.5,0.2c0.1,0.1,0.2,0.3,0.2,0.5v11.6c0,0.2-0.1,0.4-0.2,0.5C47.5,127.1,47.3,127.1,47.1,127.1z"
		/>
	<path class="st0" d="M57.7,127.1c-0.2,0-0.4-0.1-0.5-0.2c-0.1-0.1-0.2-0.3-0.2-0.5v-0.3c-0.4,0.3-0.8,0.6-1.3,0.8s-1,0.3-1.5,0.3
		c-0.6,0-1.1-0.1-1.7-0.3s-1-0.5-1.4-0.9c-0.4-0.4-0.7-0.8-0.9-1.3c-0.2-0.5-0.3-1.1-0.3-1.6c0-0.6,0.1-1.1,0.3-1.6
		c0.2-0.5,0.5-1,0.9-1.4c0.4-0.4,0.8-0.7,1.4-0.9s1.1-0.3,1.7-0.3c0.5,0,1,0.1,1.5,0.3c0.5,0.2,0.9,0.4,1.3,0.8v-0.3
		c0-0.2,0.1-0.4,0.2-0.5c0.1-0.1,0.3-0.2,0.5-0.2c0.2,0,0.4,0.1,0.5,0.2c0.1,0.1,0.2,0.3,0.2,0.5v7c0,0.2-0.1,0.4-0.2,0.5
		C58,127.1,57.9,127.1,57.7,127.1z M54.1,120.1c-0.4,0-0.7,0.1-1.1,0.2c-0.3,0.1-0.6,0.3-0.9,0.6c-0.3,0.3-0.5,0.5-0.6,0.9
		s-0.2,0.7-0.2,1.1s0.1,0.7,0.2,1.1c0.1,0.3,0.4,0.6,0.6,0.9s0.6,0.5,0.9,0.6c0.3,0.1,0.7,0.2,1.1,0.2s0.7-0.1,1.1-0.2
		s0.6-0.3,0.9-0.6c0.3-0.3,0.5-0.5,0.6-0.9c0.1-0.3,0.2-0.7,0.2-1.1s-0.1-0.7-0.2-1.1c-0.1-0.3-0.3-0.6-0.6-0.9
		c-0.3-0.3-0.6-0.5-0.9-0.6S54.5,120.1,54.1,120.1z"/>
	<path class="st0" d="M67.4,127.1c-0.2,0-0.4-0.1-0.5-0.2c-0.1-0.1-0.2-0.3-0.2-0.5v-4.3c0-0.3-0.1-0.5-0.2-0.8
		c-0.1-0.2-0.2-0.4-0.4-0.6c-0.2-0.2-0.4-0.3-0.6-0.4c-0.2-0.1-0.5-0.2-0.8-0.2c-0.3,0-0.5,0.1-0.8,0.2c-0.2,0.1-0.5,0.2-0.6,0.4
		c-0.2,0.2-0.3,0.4-0.4,0.6c-0.1,0.2-0.2,0.5-0.2,0.8c0,0,0,0.1,0,0.1v4.2c0,0.2-0.1,0.4-0.2,0.5c-0.1,0.1-0.3,0.2-0.5,0.2
		c-0.2,0-0.4-0.1-0.5-0.2c-0.1-0.1-0.2-0.3-0.2-0.5v-11.6c0-0.2,0.1-0.4,0.2-0.5c0.1-0.1,0.3-0.2,0.5-0.2c0.2,0,0.4,0.1,0.5,0.2
		c0.1,0.1,0.2,0.3,0.2,0.5v4.4c0.3-0.2,0.6-0.4,1-0.5c0.3-0.1,0.7-0.2,1.1-0.2c0.5,0,0.9,0.1,1.3,0.3c0.4,0.2,0.8,0.4,1.1,0.7
		c0.3,0.3,0.6,0.7,0.7,1.1s0.3,0.9,0.3,1.3v4.3c0,0.2-0.1,0.4-0.2,0.5C67.8,127.1,67.6,127.1,67.4,127.1z"/>
	<path class="st0" d="M71.9,119.1c0.2-0.2,0.4-0.3,0.6-0.4c0.2-0.1,0.4-0.1,0.7-0.1c0.5,0,1,0.1,1.3,0.4c0.3,0.3,0.6,0.6,0.8,1.1
		c0,0.1,0.1,0.2,0,0.3c0,0.1,0,0.2-0.1,0.3c-0.1,0.1-0.1,0.2-0.2,0.2c-0.1,0.1-0.2,0.1-0.4,0.1c-0.1,0-0.2,0-0.3-0.1
		c-0.1-0.1-0.2-0.1-0.2-0.2c-0.1-0.1-0.1-0.1-0.1-0.2c0-0.1-0.1-0.1-0.1-0.2c-0.1-0.1-0.2-0.2-0.3-0.3c-0.1-0.1-0.3-0.1-0.5-0.1
		c-0.1,0-0.3,0.1-0.4,0.1c-0.1,0.1-0.2,0.2-0.3,0.3s-0.2,0.2-0.2,0.4s-0.1,0.3-0.1,0.4v5.1c0,0.2-0.1,0.4-0.2,0.5
		c-0.1,0.1-0.3,0.2-0.5,0.2c-0.2,0-0.4-0.1-0.5-0.2c-0.1-0.1-0.2-0.3-0.2-0.5v-7c0-0.2,0.1-0.4,0.2-0.5c0.1-0.1,0.3-0.2,0.5-0.2
		c0.2,0,0.3,0,0.4,0.1S71.9,119,71.9,119.1z"/>
	<path class="st0" d="M84.1,127.1c-0.2,0-0.4-0.1-0.5-0.2c-0.1-0.1-0.2-0.3-0.2-0.5v-0.3c-0.4,0.3-0.8,0.6-1.3,0.8
		c-0.5,0.2-1,0.3-1.5,0.3c-0.6,0-1.1-0.1-1.7-0.3c-0.5-0.2-1-0.5-1.4-0.9c-0.4-0.4-0.7-0.8-0.9-1.3c-0.2-0.5-0.3-1.1-0.3-1.6
		c0-0.6,0.1-1.1,0.3-1.6c0.2-0.5,0.5-1,0.9-1.4c0.4-0.4,0.8-0.7,1.4-0.9c0.5-0.2,1.1-0.3,1.7-0.3c0.5,0,1,0.1,1.5,0.3
		c0.5,0.2,0.9,0.4,1.3,0.8v-0.3c0-0.2,0.1-0.4,0.2-0.5s0.3-0.2,0.5-0.2c0.2,0,0.4,0.1,0.5,0.2c0.1,0.1,0.2,0.3,0.2,0.5v7
		c0,0.2-0.1,0.4-0.2,0.5C84.5,127.1,84.3,127.1,84.1,127.1z M80.5,120.1c-0.4,0-0.7,0.1-1.1,0.2s-0.6,0.3-0.9,0.6
		c-0.3,0.3-0.5,0.5-0.6,0.9c-0.1,0.3-0.2,0.7-0.2,1.1s0.1,0.7,0.2,1.1c0.2,0.3,0.4,0.6,0.6,0.9c0.3,0.3,0.6,0.5,0.9,0.6
		s0.7,0.2,1.1,0.2s0.7-0.1,1.1-0.2s0.6-0.3,0.9-0.6c0.3-0.3,0.5-0.5,0.6-0.9c0.1-0.3,0.2-0.7,0.2-1.1s-0.1-0.7-0.2-1.1
		c-0.1-0.3-0.3-0.6-0.6-0.9c-0.3-0.3-0.6-0.5-0.9-0.6S80.9,120.1,80.5,120.1z"/>
	<path class="st0" d="M91.1,130.7c-0.4,0-0.7,0-1.1-0.1s-0.7-0.2-1-0.4s-0.6-0.4-0.9-0.7s-0.5-0.5-0.7-0.9c0-0.1,0-0.1-0.1-0.2
		s0-0.1,0-0.2c0-0.2,0.1-0.4,0.2-0.5s0.3-0.2,0.5-0.2c0.2,0,0.3,0,0.4,0.1c0.1,0.1,0.2,0.1,0.2,0.2c0,0,0,0.1,0.1,0.1
		s0.1,0.1,0.1,0.1l0.1,0.2c0.3,0.3,0.6,0.5,0.9,0.7c0.4,0.2,0.8,0.2,1.2,0.2c0.4,0,0.7-0.1,1.1-0.2c0.3-0.1,0.6-0.3,0.9-0.6
		c0.2-0.3,0.4-0.5,0.6-0.9s0.2-0.7,0.2-1.1v-0.3c-0.4,0.3-0.8,0.6-1.3,0.8c-0.5,0.2-1,0.3-1.5,0.3c-0.6,0-1.1-0.1-1.7-0.3
		c-0.5-0.2-1-0.5-1.4-0.9c-0.4-0.4-0.7-0.8-0.9-1.4c-0.2-0.5-0.3-1.1-0.3-1.6s0.1-1.1,0.3-1.6c0.2-0.5,0.5-1,0.9-1.3
		c0.4-0.4,0.8-0.7,1.4-0.9c0.5-0.2,1.1-0.3,1.7-0.3c0.5,0,1,0.1,1.5,0.3c0.5,0.2,0.9,0.4,1.3,0.8v-0.3c0-0.2,0.1-0.4,0.2-0.5
		s0.3-0.2,0.5-0.2c0.2,0,0.4,0.1,0.5,0.2c0.1,0.1,0.2,0.3,0.2,0.5v7.1c0,0.6-0.1,1.1-0.3,1.6s-0.5,1-0.9,1.4s-0.8,0.7-1.4,0.9
		S91.7,130.7,91.1,130.7z M91.1,120.1c-0.4,0-0.7,0.1-1.1,0.2s-0.6,0.3-0.9,0.6c-0.3,0.2-0.5,0.5-0.6,0.9c-0.1,0.3-0.2,0.7-0.2,1.1
		c0,0.4,0.1,0.7,0.2,1.1c0.2,0.3,0.4,0.6,0.6,0.9c0.3,0.3,0.6,0.5,0.9,0.6s0.7,0.2,1.1,0.2c0.4,0,0.7-0.1,1.1-0.2
		c0.3-0.1,0.6-0.3,0.9-0.6s0.4-0.5,0.6-0.9c0.1-0.3,0.2-0.7,0.2-1.1c0-0.4-0.1-0.7-0.2-1.1c-0.1-0.3-0.3-0.6-0.6-0.9
		c-0.2-0.2-0.5-0.4-0.9-0.6C91.9,120.2,91.5,120.1,91.1,120.1z"/>
	<path class="st0" d="M105.2,127.1c-0.2,0-0.4-0.1-0.5-0.2c-0.1-0.1-0.2-0.3-0.2-0.5v-0.3c-0.4,0.3-0.8,0.6-1.3,0.8s-1,0.3-1.5,0.3
		c-0.6,0-1.1-0.1-1.7-0.3s-1-0.5-1.4-0.9c-0.4-0.4-0.7-0.8-0.9-1.3c-0.2-0.5-0.3-1.1-0.3-1.6c0-0.6,0.1-1.1,0.3-1.6s0.5-1,0.9-1.4
		c0.4-0.4,0.8-0.7,1.4-0.9s1.1-0.3,1.7-0.3c0.5,0,1,0.1,1.5,0.3c0.5,0.2,0.9,0.4,1.3,0.8v-0.3c0-0.2,0.1-0.4,0.2-0.5
		c0.1-0.1,0.3-0.2,0.5-0.2c0.2,0,0.4,0.1,0.5,0.2c0.1,0.1,0.2,0.3,0.2,0.5v7c0,0.2-0.1,0.4-0.2,0.5
		C105.6,127.1,105.4,127.1,105.2,127.1z M101.7,120.1c-0.4,0-0.7,0.1-1.1,0.2c-0.3,0.1-0.6,0.3-0.9,0.6c-0.3,0.3-0.5,0.5-0.6,0.9
		s-0.2,0.7-0.2,1.1s0.1,0.7,0.2,1.1c0.1,0.3,0.4,0.6,0.6,0.9s0.6,0.5,0.9,0.6c0.3,0.1,0.7,0.2,1.1,0.2c0.4,0,0.8-0.1,1.1-0.2
		c0.3-0.1,0.6-0.3,0.9-0.6s0.5-0.5,0.6-0.9c0.1-0.3,0.2-0.7,0.2-1.1s-0.1-0.7-0.2-1.1s-0.3-0.6-0.6-0.9c-0.3-0.3-0.6-0.5-0.9-0.6
		C102.4,120.2,102.1,120.1,101.7,120.1z"/>
</g>
</svg>
