<?xml version="1.0" encoding="utf-8"?>
<!-- Generator: Adobe Illustrator 21.0.0, SVG Export Plug-In . SVG Version: 6.00 Build 0)  -->
<svg version="1.1" id="Layer_1" xmlns="http://www.w3.org/2000/svg" xmlns:xlink="http://www.w3.org/1999/xlink" x="0px" y="0px"
	 viewBox="0 0 138 155" style="enable-background:new 0 0 138 155;" xml:space="preserve">
<style type="text/css">
	.st0{fill:none;enable-background:new    ;}
	.st1{enable-background:new    ;}
	.st2{fill:#854F28;}
</style>
<path class="st0" d="z"/>
<g class="st1">
	<path class="st2" d="M43,121.4h-0.2L43,121l3,5c0.1,0.1,0.1,0.2,0.1,0.4c0,0.2-0.1,0.4-0.2,0.5c-0.1,0.1-0.3,0.2-0.5,0.2
		c-0.1,0-0.3,0-0.4-0.1c-0.1-0.1-0.2-0.2-0.3-0.3l-3.2-5.4h-0.7v5c0,0.2-0.1,0.4-0.2,0.5c-0.1,0.1-0.3,0.2-0.5,0.2
		c-0.2,0-0.4-0.1-0.5-0.2c-0.1-0.1-0.2-0.3-0.2-0.5v-11.6c0-0.2,0.1-0.4,0.2-0.5c0.1-0.1,0.3-0.2,0.5-0.2H43c0.5,0,1,0.1,1.4,0.3
		c0.4,0.2,0.8,0.5,1.2,0.8c0.3,0.3,0.6,0.7,0.8,1.2c0.2,0.4,0.3,0.9,0.3,1.4s-0.1,1-0.3,1.4c-0.2,0.4-0.5,0.8-0.8,1.2
		s-0.7,0.6-1.2,0.8C44,121.3,43.5,121.4,43,121.4z M43,115.6h-2.2v4.4H43c0.3,0,0.6-0.1,0.9-0.2s0.5-0.3,0.7-0.5
		c0.2-0.2,0.4-0.4,0.5-0.7c0.1-0.3,0.2-0.5,0.2-0.8s-0.1-0.6-0.2-0.8c-0.1-0.3-0.3-0.5-0.5-0.7s-0.4-0.4-0.7-0.5
		C43.6,115.6,43.3,115.6,43,115.6z"/>
	<path class="st2" d="M55.4,123.3h-6.3c0,0.3,0.1,0.7,0.3,0.9c0.2,0.3,0.4,0.5,0.6,0.8c0.2,0.2,0.5,0.4,0.8,0.5
		c0.3,0.1,0.6,0.2,1,0.2c0.2,0,0.4,0,0.6,0c0.2,0,0.3-0.1,0.5-0.2c0.1-0.1,0.3-0.2,0.4-0.3s0.3-0.2,0.5-0.4c0.1-0.1,0.1-0.1,0.2-0.1
		c0.1,0,0.2-0.1,0.3-0.1c0.2,0,0.4,0.1,0.5,0.2c0.1,0.1,0.2,0.3,0.2,0.5c0,0.1,0,0.2-0.1,0.3c0,0.1-0.1,0.1-0.1,0.2
		c-0.2,0.2-0.4,0.4-0.6,0.5c-0.2,0.2-0.5,0.3-0.8,0.4c-0.3,0.1-0.5,0.2-0.8,0.2s-0.6,0.1-0.8,0.1c-0.6,0-1.1-0.1-1.7-0.3
		s-1-0.5-1.4-0.9c-0.4-0.4-0.7-0.8-0.9-1.3c-0.2-0.5-0.3-1.1-0.3-1.6c0-0.6,0.1-1.1,0.3-1.6c0.2-0.5,0.5-1,0.9-1.4
		c0.4-0.4,0.8-0.7,1.4-0.9s1.1-0.3,1.7-0.3c0.6,0,1.1,0.1,1.6,0.3c0.5,0.2,0.9,0.5,1.3,0.8s0.7,0.8,0.9,1.2s0.4,1,0.4,1.6
		c0,0.2-0.1,0.4-0.2,0.5S55.6,123.3,55.4,123.3z M51.9,120.1c-0.6,0-1.1,0.2-1.6,0.5s-0.8,0.7-1,1.2h5.2c-0.2-0.5-0.6-0.9-1-1.2
		C53,120.3,52.4,120.1,51.9,120.1z"/>
	<path class="st2" d="M63.8,119.9l-3.2,3l3.2,3c0.2,0.1,0.2,0.3,0.2,0.5c0,0.2-0.1,0.4-0.2,0.5c-0.1,0.1-0.3,0.2-0.5,0.2
		c-0.2,0-0.4-0.1-0.5-0.2l-3.2-3.1v2.5c0,0.2-0.1,0.4-0.2,0.5c-0.1,0.1-0.3,0.2-0.5,0.2s-0.4-0.1-0.5-0.2c-0.1-0.1-0.2-0.3-0.2-0.5
		v-11.6c0-0.2,0.1-0.4,0.2-0.5c0.1-0.1,0.3-0.2,0.5-0.2s0.4,0.1,0.5,0.2c0.1,0.1,0.2,0.3,0.2,0.5v7l3.2-3.1c0.1-0.1,0.3-0.2,0.5-0.2
		c0.2,0,0.4,0.1,0.5,0.2c0.1,0.1,0.2,0.3,0.2,0.5S64,119.7,63.8,119.9z"/>
	<path class="st2" d="M67.2,119.1c0.2-0.2,0.4-0.3,0.6-0.4c0.2-0.1,0.4-0.1,0.7-0.1c0.5,0,1,0.1,1.3,0.4s0.6,0.6,0.8,1.1
		c0,0.1,0.1,0.2,0,0.3c0,0.1,0,0.2-0.1,0.3c-0.1,0.1-0.1,0.2-0.3,0.2c-0.1,0.1-0.2,0.1-0.4,0.1c-0.1,0-0.2,0-0.3-0.1
		c-0.1-0.1-0.2-0.1-0.2-0.2c-0.1-0.1-0.1-0.1-0.1-0.2c0-0.1-0.1-0.1-0.1-0.2c-0.1-0.1-0.2-0.2-0.3-0.3c-0.1-0.1-0.3-0.1-0.5-0.1
		c-0.1,0-0.3,0.1-0.4,0.1c-0.1,0.1-0.2,0.2-0.3,0.3s-0.2,0.2-0.2,0.4c-0.1,0.1-0.1,0.3-0.1,0.4v5.1c0,0.2-0.1,0.4-0.2,0.5
		c-0.1,0.1-0.3,0.2-0.5,0.2c-0.2,0-0.4-0.1-0.5-0.2c-0.1-0.1-0.2-0.3-0.2-0.5v-7c0-0.2,0.1-0.4,0.2-0.5c0.1-0.1,0.3-0.2,0.5-0.2
		c0.2,0,0.3,0,0.4,0.1S67.1,119,67.2,119.1z"/>
	<path class="st2" d="M79.3,123.3H73c0,0.3,0.1,0.7,0.3,0.9c0.2,0.3,0.4,0.5,0.6,0.8c0.2,0.2,0.5,0.4,0.8,0.5c0.3,0.1,0.7,0.2,1,0.2
		c0.2,0,0.4,0,0.6,0c0.2,0,0.3-0.1,0.5-0.2c0.1-0.1,0.3-0.2,0.4-0.3c0.2-0.1,0.3-0.2,0.5-0.4c0.1-0.1,0.1-0.1,0.2-0.1
		c0.1,0,0.2-0.1,0.3-0.1c0.2,0,0.4,0.1,0.5,0.2c0.1,0.1,0.2,0.3,0.2,0.5c0,0.1,0,0.2-0.1,0.3c0,0.1-0.1,0.1-0.1,0.2
		c-0.2,0.2-0.4,0.4-0.6,0.5c-0.2,0.2-0.5,0.3-0.8,0.4s-0.5,0.2-0.8,0.2c-0.3,0.1-0.5,0.1-0.8,0.1c-0.6,0-1.1-0.1-1.7-0.3
		s-1-0.5-1.4-0.9c-0.4-0.4-0.7-0.8-0.9-1.3c-0.2-0.5-0.3-1.1-0.3-1.6c0-0.6,0.1-1.1,0.3-1.6s0.5-1,0.9-1.4c0.4-0.4,0.8-0.7,1.4-0.9
		s1.1-0.3,1.7-0.3c0.6,0,1.1,0.1,1.6,0.3s0.9,0.5,1.3,0.8c0.4,0.3,0.7,0.8,0.9,1.2s0.4,1,0.4,1.6c0,0.2-0.1,0.4-0.2,0.5
		C79.7,123.2,79.5,123.3,79.3,123.3z M75.8,120.1c-0.6,0-1.1,0.2-1.6,0.5s-0.8,0.7-1,1.2h5.2c-0.2-0.5-0.5-0.9-1-1.2
		C76.9,120.3,76.3,120.1,75.8,120.1z"/>
	<path class="st2" d="M89.1,127.1c-0.2,0-0.4-0.1-0.5-0.2c-0.1-0.1-0.2-0.3-0.2-0.5v-0.3c-0.4,0.3-0.8,0.6-1.3,0.8
		c-0.5,0.2-1,0.3-1.5,0.3c-0.6,0-1.1-0.1-1.7-0.3c-0.5-0.2-1-0.5-1.4-0.9c-0.4-0.4-0.7-0.8-0.9-1.3c-0.2-0.5-0.3-1.1-0.3-1.6
		c0-0.6,0.1-1.1,0.3-1.6c0.2-0.5,0.5-1,0.9-1.4c0.4-0.4,0.8-0.7,1.4-0.9c0.5-0.2,1.1-0.3,1.7-0.3c0.5,0,1,0.1,1.5,0.3
		c0.5,0.2,0.9,0.4,1.3,0.8v-0.3c0-0.2,0.1-0.4,0.2-0.5s0.3-0.2,0.5-0.2c0.2,0,0.4,0.1,0.5,0.2c0.1,0.1,0.2,0.3,0.2,0.5v7
		c0,0.2-0.1,0.4-0.2,0.5C89.5,127.1,89.3,127.1,89.1,127.1z M85.6,120.1c-0.4,0-0.8,0.1-1.1,0.2c-0.3,0.1-0.6,0.3-0.9,0.6
		c-0.3,0.3-0.5,0.5-0.6,0.9c-0.1,0.3-0.2,0.7-0.2,1.1s0.1,0.7,0.2,1.1c0.1,0.3,0.4,0.6,0.6,0.9c0.3,0.3,0.6,0.5,0.9,0.6
		c0.3,0.1,0.7,0.2,1.1,0.2s0.7-0.1,1.1-0.2s0.6-0.3,0.9-0.6c0.3-0.3,0.5-0.5,0.6-0.9c0.1-0.3,0.2-0.7,0.2-1.1s-0.1-0.7-0.2-1.1
		s-0.3-0.6-0.6-0.9c-0.3-0.3-0.6-0.5-0.9-0.6S86,120.1,85.6,120.1z"/>
	<path class="st2" d="M94.7,127.1c-0.3,0-0.7-0.1-1-0.2c-0.3-0.1-0.6-0.3-0.9-0.5s-0.5-0.5-0.7-0.8s-0.3-0.7-0.3-1
		c0-0.2,0.1-0.4,0.2-0.5c0.1-0.1,0.3-0.2,0.5-0.2c0.2,0,0.4,0.1,0.5,0.2c0.1,0.1,0.2,0.3,0.2,0.5c0,0.3,0.1,0.6,0.4,0.7
		c0.3,0.2,0.6,0.3,0.9,0.3c0.4,0,0.7-0.1,0.9-0.2c0.2-0.2,0.3-0.4,0.3-0.8c0-0.2,0-0.4-0.1-0.5c-0.1-0.1-0.2-0.2-0.4-0.3
		c-0.1-0.1-0.2-0.1-0.3-0.1c-0.1,0-0.2-0.1-0.3-0.1s-0.2-0.1-0.3-0.1c-0.1,0-0.2-0.1-0.4-0.1c-0.2-0.1-0.5-0.2-0.7-0.3
		s-0.5-0.2-0.7-0.4s-0.4-0.4-0.5-0.6c-0.1-0.3-0.2-0.6-0.2-1c0-0.4,0.1-0.7,0.2-1c0.1-0.3,0.3-0.5,0.5-0.8s0.5-0.4,0.8-0.5
		c0.3-0.1,0.6-0.2,1-0.2s0.6,0.1,1,0.2s0.6,0.3,0.8,0.5s0.4,0.5,0.5,0.8c0.1,0.3,0.2,0.6,0.2,1c0,0.2-0.1,0.4-0.2,0.5
		c-0.1,0.1-0.3,0.2-0.5,0.2c-0.2,0-0.4-0.1-0.5-0.2c-0.1-0.1-0.2-0.3-0.2-0.5c0-0.3-0.1-0.5-0.3-0.7c-0.2-0.2-0.4-0.2-0.7-0.2
		s-0.5,0.1-0.7,0.2s-0.3,0.4-0.3,0.7c0,0.3,0.2,0.5,0.5,0.6c0.2,0.1,0.4,0.2,0.6,0.2c0.1,0.1,0.2,0.1,0.3,0.1c0.1,0,0.2,0.1,0.4,0.1
		c0.2,0.1,0.5,0.2,0.7,0.3c0.2,0.1,0.5,0.3,0.7,0.5c0.2,0.2,0.4,0.4,0.5,0.7c0.1,0.3,0.2,0.6,0.2,1c0,0.4-0.1,0.7-0.2,1.1
		c-0.1,0.3-0.3,0.6-0.6,0.8c-0.2,0.2-0.5,0.4-0.9,0.5C95.5,127.1,95.1,127.1,94.7,127.1z"/>
	<path class="st2" d="M100.4,117.5c-0.3,0-0.5-0.1-0.7-0.3c-0.2-0.2-0.3-0.4-0.3-0.7c0-0.3,0.1-0.5,0.3-0.7c0.2-0.2,0.4-0.3,0.7-0.3
		c0.3,0,0.5,0.1,0.7,0.3c0.2,0.2,0.3,0.4,0.3,0.7c0,0.3-0.1,0.5-0.3,0.7C100.9,117.4,100.7,117.5,100.4,117.5z M100.4,127.1
		c-0.2,0-0.4-0.1-0.5-0.2c-0.1-0.1-0.2-0.3-0.2-0.5v-7c0-0.2,0.1-0.4,0.2-0.5s0.3-0.2,0.5-0.2s0.4,0.1,0.5,0.2s0.2,0.3,0.2,0.5v7
		c0,0.2-0.1,0.4-0.2,0.5C100.8,127.1,100.6,127.1,100.4,127.1z"/>
</g>
<g>
	<path class="st2" d="M72.3,63.2v-7.9c0-0.1-0.1-0.2-0.2-0.2h-2v-1.5c0-1.2-0.7-2.2-1.7-2.7c-0.4-0.2-0.8-0.3-1.3-0.3
		c-0.2,0-0.4,0-0.7,0.1c-0.5-1.2-1.6-2-2.9-2.2c-0.1,0-0.3,0-0.4,0c-0.9,0-1.7,0.3-2.3,0.9c-1-1.6-2.8-2.6-4.7-2.6
		c-0.2,0-0.4,0-0.6,0c-1.8,0.2-3.4,1.2-4.2,2.8c-0.6-0.4-1.4-0.6-2.1-0.6c-0.2,0-0.3,0-0.5,0c-1.4,0.2-2.5,1-3.1,2.3
		c-0.5-0.3-1-0.4-1.5-0.4c-1,0-2,0.5-2.6,1.4l-2,2.8h-0.1c-0.1,0-0.1,0-0.2,0.1c0,0-0.1,0.1-0.1,0.2l0,7.9c0,4.7,2,9.2,5.3,12.3
		l1.4,11.8c0,0.1,0.1,0.2,0.2,0.2h19.4c0.1,0,0.2-0.1,0.2-0.2l1.2-11.6C70.3,72.5,72.3,68,72.3,63.2z M55.7,80.1
		c3,0,5.9-0.8,8.4-2.3L63.3,85H47.9l-0.9-7.3C49.7,79.3,52.6,80.1,55.7,80.1z M55.7,77.6c-3.3,0-6.4-1.2-9-3.3l-1.3-10.9h20.2
		l-1.2,11C62,76.5,58.8,77.6,55.7,77.6z M43.4,53.7c0.1-0.2,0.4-0.3,0.6-0.3l0-0.2l0,0.2c0.2,0,0.5,0.1,0.6,0.3
		c0.3,0.4,0.8,0.6,1.3,0.6c0.1,0,0.1,0,0.2,0c0.6-0.1,1-0.4,1.3-0.9l0.5-1.2c0.2-0.4,0.6-0.8,1.1-0.8c0.1,0,0.1,0,0.2,0
		c0.4,0,0.8,0.2,1.1,0.5l0.2,0.3c0.3,0.4,0.7,0.6,1.2,0.6c0.1,0,0.2,0,0.3,0c0.6-0.1,1-0.5,1.2-1.1l0-0.1c0.4-1.5,1.6-2.2,2.7-2.3
		c0.1,0,0.2,0,0.3,0c0.6,0,2,0.2,2.8,1.7l0.5,1c0.3,0.5,0.8,0.8,1.3,0.8l0.1,0c0.6,0,1.1-0.4,1.3-1l0-0.1c0.2-0.6,0.8-0.7,1-0.7
		c0,0,0.1,0,0.1,0c0.2,0,0.8,0.2,1,0.9l0.1,0.4c0.1,0.5,0.5,1,1,1.2c0.2,0.1,0.4,0.1,0.5,0.1c0.4,0,0.7-0.1,1-0.4
		c0.1-0.1,0.2-0.1,0.3-0.1c0.1,0,0.2,0,0.2,0c0.1,0.1,0.3,0.2,0.3,0.4v1.5H42.5L43.4,53.7z M69.8,61H41.5v-3.4h28.3V61z M43.8,71
		c-1.4-2.3-2.2-4.9-2.3-7.6h1.4L43.8,71z M69.8,63.5c-0.1,2.9-0.9,5.6-2.5,7.9l0.8-7.9H69.8z"/>
	<path class="st2" d="M102.2,38.1c0-0.1-0.1-0.1-0.2-0.1l-14.7-3c0,0,0,0,0,0c-0.1,0-0.2,0.1-0.2,0.2l-0.2,1
		c-0.8,3.7,1.3,7.5,4.8,8.8l-3.2,15.6c-0.2,0-0.4,0-0.6,0c-1.8,0-3.5,0.5-5,1.5c-2,1.3-3.4,3.4-3.9,5.8l-2.6,12.4
		c-1.6,0.4-3.6,0.7-5.4,3.7c0,0.1,0,0.1,0,0.2c0,0.1,0.1,0.1,0.1,0.1l1.7,1c0,0,0.1,0,0.1,0c0.1,0,0.1,0,0.2-0.1
		c1.4-1.6,2.7-3,7.4-3c6,0,11.1,3.3,12.1,7.8c0,0.1,0.1,0.1,0.1,0.2c0,0,0.1,0,0.1,0c0,0,0,0,0.1,0l2-0.4c0.1,0,0.1-0.1,0.2-0.1
		c0-0.1,0-0.1,0-0.2c-0.2-0.7-0.4-1.5-0.8-2.2l3.3-14.8c0.5-2.6,0-5.2-1.4-7.4c-1.2-1.9-3.1-3.3-5.2-4l3.2-15.5c0.1,0,0.2,0,0.3,0
		c3.7,0,6.8-2.6,7.6-6.2l0.2-1C102.3,38.2,102.2,38.1,102.2,38.1z M94.5,42.9c-0.4,0-0.7,0-1.1-0.1c-2.4-0.5-4.1-2.5-4.2-5l10,2.1
		C98.3,41.7,96.5,42.9,94.5,42.9z M84.2,64c1.1-0.7,2.3-1.1,3.6-1.1c0.5,0,0.9,0,1.4,0.1l0.2,0c1.9,0.4,3.6,1.5,4.7,3.2
		c1.1,1.6,1.5,3.6,1.1,5.5l-2.7,12.5c-2.8-3-7.1-4.7-11.8-4.7c-0.5,0-1,0-1.6,0.1l2.4-11.5C81.7,66.5,82.7,65,84.2,64z"/>
</g>
</svg>
