<?xml version="1.0" encoding="utf-8"?>
<!-- Generator: Adobe Illustrator 21.0.0, SVG Export Plug-In . SVG Version: 6.00 Build 0)  -->
<svg version="1.1" id="Layer_1" xmlns="http://www.w3.org/2000/svg" xmlns:xlink="http://www.w3.org/1999/xlink" x="0px" y="0px"
	 viewBox="0 0 138 155" style="enable-background:new 0 0 138 155;" xml:space="preserve">
<style type="text/css">
	.st0{fill:none;enable-background:new    ;}
	.st1{enable-background:new    ;}
	.st2{fill:#854F28;}
</style>
<path class="st0" d="z"/>
<g class="st1">
	<path class="st2" d="M37.1,127.1c-0.5,0-1-0.1-1.4-0.3c-0.4-0.2-0.8-0.5-1.2-0.8c-0.3-0.3-0.6-0.7-0.8-1.2
		c-0.2-0.4-0.3-0.9-0.3-1.4c0-0.2,0.1-0.4,0.2-0.5c0.1-0.1,0.3-0.2,0.5-0.2c0.2,0,0.4,0.1,0.5,0.2c0.1,0.1,0.2,0.3,0.2,0.5
		c0,0.3,0.1,0.6,0.2,0.8c0.1,0.3,0.3,0.5,0.5,0.7c0.2,0.2,0.4,0.4,0.7,0.5c0.3,0.1,0.5,0.2,0.8,0.2s0.6-0.1,0.9-0.2s0.5-0.3,0.7-0.5
		c0.2-0.2,0.4-0.4,0.5-0.7c0.1-0.3,0.2-0.5,0.2-0.8c0-0.4-0.1-0.7-0.2-0.9c-0.1-0.2-0.3-0.4-0.6-0.6c-0.1-0.1-0.3-0.2-0.4-0.2
		c-0.2-0.1-0.3-0.1-0.5-0.2c-0.2-0.1-0.3-0.1-0.5-0.2c-0.2-0.1-0.4-0.1-0.5-0.2c-0.4-0.1-0.7-0.3-1.1-0.4s-0.7-0.4-1-0.6
		c-0.3-0.2-0.5-0.6-0.7-0.9s-0.3-0.8-0.3-1.4c0-0.5,0.1-1,0.3-1.4c0.2-0.4,0.5-0.8,0.8-1.2c0.3-0.3,0.7-0.6,1.2-0.8
		c0.4-0.2,0.9-0.3,1.4-0.3c0.5,0,1,0.1,1.4,0.3c0.4,0.2,0.8,0.5,1.2,0.8c0.3,0.3,0.6,0.7,0.8,1.2c0.2,0.4,0.3,0.9,0.3,1.4
		c0,0.2-0.1,0.4-0.2,0.5c-0.1,0.1-0.3,0.2-0.5,0.2c-0.2,0-0.4-0.1-0.5-0.2c-0.1-0.1-0.2-0.3-0.2-0.5c0-0.3-0.1-0.6-0.2-0.8
		s-0.3-0.5-0.5-0.7s-0.4-0.4-0.7-0.5c-0.3-0.1-0.6-0.2-0.9-0.2s-0.6,0.1-0.8,0.2c-0.3,0.1-0.5,0.3-0.7,0.5s-0.4,0.4-0.5,0.7
		s-0.2,0.6-0.2,0.8c0,0.3,0.1,0.6,0.2,0.8c0.1,0.2,0.3,0.4,0.6,0.6c0.3,0.2,0.6,0.3,0.9,0.4c0.2,0.1,0.4,0.1,0.5,0.2
		c0.2,0.1,0.4,0.1,0.5,0.2c0.4,0.1,0.7,0.3,1.1,0.5c0.4,0.2,0.7,0.4,1,0.6c0.3,0.3,0.5,0.6,0.7,1c0.2,0.4,0.3,0.9,0.3,1.4
		c0,0.5-0.1,1-0.3,1.4c-0.2,0.4-0.5,0.8-0.8,1.2c-0.3,0.3-0.7,0.6-1.2,0.8S37.6,127.1,37.1,127.1z"/>
	<path class="st2" d="M49.4,127.1c-0.2,0-0.4-0.1-0.5-0.2c-0.1-0.1-0.2-0.3-0.2-0.5v-4.3c0-0.3-0.1-0.5-0.2-0.8
		c-0.1-0.2-0.2-0.4-0.4-0.6c-0.2-0.2-0.4-0.3-0.6-0.4c-0.2-0.1-0.5-0.2-0.8-0.2c-0.3,0-0.5,0.1-0.8,0.2c-0.2,0.1-0.5,0.2-0.6,0.4
		c-0.2,0.2-0.3,0.4-0.4,0.6c-0.1,0.2-0.2,0.5-0.2,0.8c0,0,0,0.1,0,0.1v4.2c0,0.2-0.1,0.4-0.2,0.5c-0.1,0.1-0.3,0.2-0.5,0.2
		c-0.2,0-0.4-0.1-0.5-0.2c-0.1-0.1-0.2-0.3-0.2-0.5v-11.6c0-0.2,0.1-0.4,0.2-0.5c0.1-0.1,0.3-0.2,0.5-0.2c0.2,0,0.4,0.1,0.5,0.2
		c0.1,0.1,0.2,0.3,0.2,0.5v4.4c0.3-0.2,0.6-0.4,1-0.5c0.3-0.1,0.7-0.2,1.1-0.2c0.5,0,0.9,0.1,1.3,0.3c0.4,0.2,0.8,0.4,1.1,0.7
		c0.3,0.3,0.6,0.7,0.7,1.1s0.3,0.9,0.3,1.3v4.3c0,0.2-0.1,0.4-0.2,0.5C49.8,127.1,49.6,127.1,49.4,127.1z"/>
	<path class="st2" d="M56.1,127.1c-0.6,0-1.1-0.1-1.7-0.3s-1-0.5-1.4-0.9c-0.4-0.4-0.7-0.8-0.9-1.3c-0.2-0.5-0.3-1.1-0.3-1.6
		c0-0.6,0.1-1.1,0.3-1.6c0.2-0.5,0.5-1,0.9-1.4c0.4-0.4,0.8-0.7,1.4-0.9s1.1-0.3,1.7-0.3s1.1,0.1,1.7,0.3c0.5,0.2,1,0.5,1.4,0.9
		c0.4,0.4,0.7,0.8,0.9,1.4s0.3,1.1,0.3,1.6c0,0.6-0.1,1.1-0.3,1.6c-0.2,0.5-0.5,1-0.9,1.3c-0.4,0.4-0.8,0.7-1.4,0.9
		C57.2,127,56.7,127.1,56.1,127.1z M56.1,120.1c-0.4,0-0.8,0.1-1.1,0.2c-0.3,0.1-0.6,0.3-0.9,0.6c-0.3,0.3-0.5,0.5-0.6,0.9
		c-0.1,0.3-0.2,0.7-0.2,1.1s0.1,0.7,0.2,1.1c0.1,0.3,0.4,0.6,0.6,0.9s0.6,0.5,0.9,0.6c0.3,0.1,0.7,0.2,1.1,0.2
		c0.4,0,0.7-0.1,1.1-0.2s0.6-0.3,0.9-0.6c0.3-0.3,0.5-0.5,0.6-0.9c0.1-0.3,0.2-0.7,0.2-1.1s-0.1-0.7-0.2-1.1s-0.3-0.6-0.6-0.9
		c-0.2-0.3-0.5-0.5-0.9-0.6S56.4,120.1,56.1,120.1z"/>
	<path class="st2" d="M66.6,127.1c-0.5,0-1-0.1-1.5-0.3s-0.9-0.4-1.3-0.8v4c0,0.2-0.1,0.4-0.2,0.5c-0.1,0.1-0.3,0.2-0.5,0.2
		c-0.2,0-0.4-0.1-0.5-0.2c-0.1-0.1-0.2-0.3-0.2-0.5v-10.7c0-0.2,0.1-0.4,0.2-0.5c0.1-0.1,0.3-0.2,0.5-0.2c0.2,0,0.4,0.1,0.5,0.2
		c0.1,0.1,0.2,0.3,0.2,0.5v0.3c0.4-0.3,0.8-0.6,1.3-0.8c0.5-0.2,1-0.3,1.5-0.3c0.6,0,1.1,0.1,1.7,0.3s1,0.5,1.4,0.9
		c0.4,0.4,0.7,0.8,0.9,1.3c0.2,0.5,0.3,1.1,0.3,1.6s-0.1,1.1-0.3,1.6c-0.2,0.5-0.5,1-0.9,1.4c-0.4,0.4-0.8,0.7-1.4,0.9
		S67.2,127.1,66.6,127.1z M66.6,120.1c-0.4,0-0.7,0.1-1.1,0.2c-0.3,0.1-0.6,0.3-0.9,0.6c-0.3,0.3-0.5,0.5-0.6,0.9s-0.2,0.7-0.2,1.1
		c0,0.4,0.1,0.7,0.2,1.1c0.1,0.3,0.4,0.6,0.6,0.9c0.3,0.3,0.6,0.5,0.9,0.6s0.7,0.2,1.1,0.2s0.7-0.1,1.1-0.2c0.3-0.1,0.6-0.3,0.9-0.6
		s0.5-0.5,0.6-0.9c0.1-0.3,0.2-0.7,0.2-1.1c0-0.4-0.1-0.7-0.2-1.1c-0.1-0.3-0.3-0.6-0.6-0.9c-0.3-0.3-0.6-0.5-0.9-0.6
		C67.4,120.2,67,120.1,66.6,120.1z"/>
	<path class="st2" d="M77.2,127.1c-0.5,0-1-0.1-1.5-0.3s-0.9-0.4-1.3-0.8v4c0,0.2-0.1,0.4-0.2,0.5c-0.1,0.1-0.3,0.2-0.5,0.2
		c-0.2,0-0.4-0.1-0.5-0.2c-0.1-0.1-0.2-0.3-0.2-0.5v-10.7c0-0.2,0.1-0.4,0.2-0.5c0.1-0.1,0.3-0.2,0.5-0.2c0.2,0,0.4,0.1,0.5,0.2
		c0.1,0.1,0.2,0.3,0.2,0.5v0.3c0.4-0.3,0.8-0.6,1.3-0.8c0.5-0.2,1-0.3,1.5-0.3c0.6,0,1.1,0.1,1.7,0.3s1,0.5,1.4,0.9
		c0.4,0.4,0.7,0.8,0.9,1.3c0.2,0.5,0.3,1.1,0.3,1.6s-0.1,1.1-0.3,1.6c-0.2,0.5-0.5,1-0.9,1.4c-0.4,0.4-0.8,0.7-1.4,0.9
		S77.8,127.1,77.2,127.1z M77.2,120.1c-0.4,0-0.8,0.1-1.1,0.2c-0.3,0.1-0.6,0.3-0.9,0.6c-0.3,0.3-0.5,0.5-0.6,0.9s-0.2,0.7-0.2,1.1
		c0,0.4,0.1,0.7,0.2,1.1c0.1,0.3,0.4,0.6,0.6,0.9c0.3,0.3,0.5,0.5,0.9,0.6c0.3,0.1,0.7,0.2,1.1,0.2c0.4,0,0.7-0.1,1.1-0.2
		c0.3-0.1,0.6-0.3,0.9-0.6s0.5-0.5,0.6-0.9c0.1-0.3,0.2-0.7,0.2-1.1c0-0.4-0.1-0.7-0.2-1.1c-0.1-0.3-0.3-0.6-0.6-0.9
		c-0.3-0.3-0.6-0.5-0.9-0.6C78,120.2,77.6,120.1,77.2,120.1z"/>
	<path class="st2" d="M84.5,117.5c-0.3,0-0.5-0.1-0.7-0.3c-0.2-0.2-0.3-0.4-0.3-0.7c0-0.3,0.1-0.5,0.3-0.7c0.2-0.2,0.4-0.3,0.7-0.3
		c0.3,0,0.5,0.1,0.7,0.3c0.2,0.2,0.3,0.4,0.3,0.7c0,0.3-0.1,0.5-0.3,0.7C85,117.4,84.8,117.5,84.5,117.5z M84.5,127.1
		c-0.2,0-0.4-0.1-0.5-0.2c-0.1-0.1-0.2-0.3-0.2-0.5v-7c0-0.2,0.1-0.4,0.2-0.5c0.1-0.1,0.3-0.2,0.5-0.2c0.2,0,0.4,0.1,0.5,0.2
		c0.2,0.1,0.2,0.3,0.2,0.5v7c0,0.2-0.1,0.4-0.2,0.5C84.9,127.1,84.7,127.1,84.5,127.1z"/>
	<path class="st2" d="M89.7,119.1c0.5-0.3,1.1-0.5,1.7-0.5c0.4,0,0.8,0.1,1.2,0.2c0.4,0.2,0.7,0.4,1,0.7s0.5,0.6,0.7,1
		c0.2,0.4,0.2,0.8,0.2,1.2v4.7c0,0.2-0.1,0.4-0.2,0.5c-0.1,0.1-0.3,0.2-0.5,0.2c-0.2,0-0.4-0.1-0.5-0.2c-0.1-0.1-0.2-0.3-0.2-0.5
		v-4.7c0-0.2,0-0.4-0.1-0.6c-0.1-0.2-0.2-0.4-0.3-0.5s-0.3-0.3-0.5-0.3c-0.2-0.1-0.4-0.1-0.6-0.1s-0.4,0-0.6,0.1
		c-0.2,0.1-0.4,0.2-0.5,0.3c-0.1,0.1-0.3,0.3-0.3,0.5c-0.1,0.2-0.1,0.4-0.1,0.6c0,0,0,0.1,0,0.1v4.6c0,0.2-0.1,0.4-0.2,0.5
		c-0.1,0.1-0.3,0.2-0.5,0.2c-0.2,0-0.4-0.1-0.5-0.2c-0.1-0.1-0.2-0.3-0.2-0.5v-7.1c0-0.2,0.1-0.4,0.2-0.5c0.1-0.1,0.3-0.2,0.5-0.2
		C89.4,118.5,89.6,118.7,89.7,119.1z"/>
	<path class="st2" d="M100.4,130.7c-0.4,0-0.7,0-1.1-0.1s-0.7-0.2-1-0.4s-0.6-0.4-0.9-0.7s-0.5-0.5-0.7-0.9c0-0.1,0-0.1-0.1-0.2
		s0-0.1,0-0.2c0-0.2,0.1-0.4,0.2-0.5s0.3-0.2,0.5-0.2c0.2,0,0.3,0,0.4,0.1c0.1,0.1,0.2,0.1,0.2,0.2c0,0,0,0.1,0.1,0.1
		s0.1,0.1,0.1,0.1l0.1,0.2c0.3,0.3,0.6,0.5,0.9,0.7c0.4,0.2,0.8,0.2,1.2,0.2c0.4,0,0.7-0.1,1.1-0.2c0.3-0.1,0.6-0.3,0.9-0.6
		c0.2-0.3,0.4-0.5,0.6-0.9c0.2-0.3,0.2-0.7,0.2-1.1v-0.3c-0.4,0.3-0.8,0.6-1.3,0.8c-0.5,0.2-1,0.3-1.5,0.3c-0.6,0-1.1-0.1-1.7-0.3
		c-0.5-0.2-1-0.5-1.4-0.9c-0.4-0.4-0.7-0.8-0.9-1.4c-0.2-0.5-0.3-1.1-0.3-1.6s0.1-1.1,0.3-1.6c0.2-0.5,0.5-1,0.9-1.3
		c0.4-0.4,0.8-0.7,1.4-0.9c0.5-0.2,1.1-0.3,1.7-0.3c0.5,0,1,0.1,1.5,0.3c0.5,0.2,0.9,0.4,1.3,0.8v-0.3c0-0.2,0.1-0.4,0.2-0.5
		s0.3-0.2,0.5-0.2c0.2,0,0.4,0.1,0.5,0.2c0.1,0.1,0.2,0.3,0.2,0.5v7.1c0,0.6-0.1,1.1-0.3,1.6s-0.5,1-0.9,1.4s-0.8,0.7-1.4,0.9
		C101.5,130.6,101,130.7,100.4,130.7z M100.4,120.1c-0.4,0-0.8,0.1-1.1,0.2c-0.3,0.1-0.6,0.3-0.9,0.6c-0.3,0.2-0.5,0.5-0.6,0.9
		c-0.1,0.3-0.2,0.7-0.2,1.1c0,0.4,0.1,0.7,0.2,1.1c0.1,0.3,0.4,0.6,0.6,0.9c0.3,0.3,0.6,0.5,0.9,0.6c0.3,0.1,0.7,0.2,1.1,0.2
		c0.4,0,0.7-0.1,1.1-0.2c0.3-0.1,0.6-0.3,0.9-0.6s0.4-0.5,0.6-0.9c0.2-0.3,0.2-0.7,0.2-1.1c0-0.4-0.1-0.7-0.2-1.1
		c-0.1-0.3-0.3-0.6-0.6-0.9c-0.2-0.2-0.5-0.4-0.9-0.6C101.1,120.2,100.7,120.1,100.4,120.1z"/>
</g>
<g>
	<g>
		<path class="st2" d="M86.5,47.3h-7.1V47c0-6.1-4.9-11-11-11c-6.1,0-11,4.9-11,11v0.3h-7.1c-0.7,0-1.3,0.6-1.3,1.3v39
			c0,0.7,0.6,1.3,1.3,1.3h36.2c0.7,0,1.3-0.6,1.3-1.3v-39C87.8,47.9,87.3,47.3,86.5,47.3z M68.4,38.6c4.6,0,8.4,3.8,8.4,8.4v0.3H60
			V47C60,42.4,63.8,38.6,68.4,38.6z M85.2,86.4H51.6V50h5.7v7.9c0,0.7,0.6,1.3,1.3,1.3c0.7,0,1.3-0.6,1.3-1.3V50h16.8v7.9
			c0,0.7,0.6,1.3,1.3,1.3c0.7,0,1.3-0.6,1.3-1.3V50h5.7V86.4z"/>
	</g>
</g>
</svg>
